%TF.GenerationSoftware,KiCad,Pcbnew,8.0.1*%
%TF.CreationDate,2024-05-27T16:44:31-06:00*%
%TF.ProjectId,KETSINI,4b455453-494e-4492-9e6b-696361645f70,rev?*%
%TF.SameCoordinates,Original*%
%TF.FileFunction,Soldermask,Top*%
%TF.FilePolarity,Negative*%
%FSLAX46Y46*%
G04 Gerber Fmt 4.6, Leading zero omitted, Abs format (unit mm)*
G04 Created by KiCad (PCBNEW 8.0.1) date 2024-05-27 16:44:31*
%MOMM*%
%LPD*%
G01*
G04 APERTURE LIST*
G04 Aperture macros list*
%AMRoundRect*
0 Rectangle with rounded corners*
0 $1 Rounding radius*
0 $2 $3 $4 $5 $6 $7 $8 $9 X,Y pos of 4 corners*
0 Add a 4 corners polygon primitive as box body*
4,1,4,$2,$3,$4,$5,$6,$7,$8,$9,$2,$3,0*
0 Add four circle primitives for the rounded corners*
1,1,$1+$1,$2,$3*
1,1,$1+$1,$4,$5*
1,1,$1+$1,$6,$7*
1,1,$1+$1,$8,$9*
0 Add four rect primitives between the rounded corners*
20,1,$1+$1,$2,$3,$4,$5,0*
20,1,$1+$1,$4,$5,$6,$7,0*
20,1,$1+$1,$6,$7,$8,$9,0*
20,1,$1+$1,$8,$9,$2,$3,0*%
G04 Aperture macros list end*
%ADD10R,3.100000X2.400000*%
%ADD11RoundRect,0.070000X-0.250000X1.100000X-0.250000X-1.100000X0.250000X-1.100000X0.250000X1.100000X0*%
%ADD12C,0.770000*%
%ADD13RoundRect,0.102000X-0.325000X0.525000X-0.325000X-0.525000X0.325000X-0.525000X0.325000X0.525000X0*%
%ADD14R,1.500000X0.900000*%
%ADD15R,1.700000X1.700000*%
%ADD16O,1.700000X1.700000*%
%ADD17RoundRect,0.250000X0.450000X-0.350000X0.450000X0.350000X-0.450000X0.350000X-0.450000X-0.350000X0*%
%ADD18R,0.800000X1.000000*%
%ADD19C,0.900000*%
%ADD20R,1.500000X0.700000*%
%ADD21RoundRect,0.250000X0.600000X0.750000X-0.600000X0.750000X-0.600000X-0.750000X0.600000X-0.750000X0*%
%ADD22O,1.700000X2.000000*%
%ADD23C,2.109000*%
G04 APERTURE END LIST*
D10*
%TO.C,U1*%
X172300000Y-110650000D03*
D11*
X174205000Y-107775000D03*
X172935000Y-107775000D03*
X171665000Y-107775000D03*
X170395000Y-107775000D03*
X170395000Y-113525000D03*
X171665000Y-113525000D03*
X172935000Y-113525000D03*
X174205000Y-113525000D03*
D12*
X173600000Y-110000000D03*
X172300000Y-110000000D03*
X171000000Y-110000000D03*
X173600000Y-111300000D03*
X172300000Y-111300000D03*
X171000000Y-111300000D03*
%TD*%
D13*
%TO.C,S3*%
X159500000Y-101350000D03*
X159500000Y-105500000D03*
X157350000Y-101350000D03*
X157350000Y-105500000D03*
%TD*%
D14*
%TO.C,RGB2*%
X169150000Y-101750000D03*
X169150000Y-105050000D03*
X174050000Y-105050000D03*
X174050000Y-101750000D03*
%TD*%
D15*
%TO.C,MA1*%
X171060000Y-116700000D03*
D16*
X173600000Y-116700000D03*
%TD*%
D15*
%TO.C,MB1*%
X164860000Y-116700000D03*
D16*
X167400000Y-116700000D03*
%TD*%
D10*
%TO.C,U2*%
X166090000Y-110650000D03*
D11*
X167995000Y-107775000D03*
X166725000Y-107775000D03*
X165455000Y-107775000D03*
X164185000Y-107775000D03*
X164185000Y-113525000D03*
X165455000Y-113525000D03*
X166725000Y-113525000D03*
X167995000Y-113525000D03*
D12*
X167390000Y-110000000D03*
X166090000Y-110000000D03*
X164790000Y-110000000D03*
X167390000Y-111300000D03*
X166090000Y-111300000D03*
X164790000Y-111300000D03*
%TD*%
D17*
%TO.C,R2*%
X164900000Y-99200000D03*
X164900000Y-97200000D03*
%TD*%
%TO.C,R1*%
X161950000Y-99200000D03*
X161950000Y-97200000D03*
%TD*%
D18*
%TO.C,SW1*%
X159400000Y-107100000D03*
X157190000Y-107100000D03*
D19*
X158290000Y-109250000D03*
X158290000Y-112250000D03*
D18*
X159400000Y-114400000D03*
X157190000Y-114400000D03*
D20*
X160050000Y-108500000D03*
X160050000Y-111500000D03*
X160050000Y-113000000D03*
%TD*%
D17*
%TO.C,R3*%
X158650000Y-99200000D03*
X158650000Y-97200000D03*
%TD*%
D21*
%TO.C,BATTERY1*%
X160600000Y-116900000D03*
D22*
X158100000Y-116900000D03*
%TD*%
D23*
%TO.C,ESP 32 C3*%
X179220000Y-116870000D03*
X181760000Y-116870000D03*
X184300000Y-116870000D03*
X186840000Y-116870000D03*
X191920000Y-116870000D03*
X189380000Y-116870000D03*
X197000000Y-101630000D03*
X197000000Y-116870000D03*
X194460000Y-101630000D03*
X191920000Y-101630000D03*
X189380000Y-101630000D03*
X186840000Y-101630000D03*
X184300000Y-101630000D03*
X181760000Y-101630000D03*
X179220000Y-101630000D03*
X194460000Y-116870000D03*
%TD*%
D15*
%TO.C,ACT1*%
X168020000Y-98250000D03*
D16*
X170560000Y-98250000D03*
X173100000Y-98250000D03*
%TD*%
D15*
%TO.C,J1*%
X197000000Y-98250000D03*
D16*
X194460000Y-98250000D03*
X191920000Y-98250000D03*
X189380000Y-98250000D03*
X186840000Y-98250000D03*
X184300000Y-98250000D03*
X181760000Y-98250000D03*
X179220000Y-98250000D03*
X176680000Y-98250000D03*
%TD*%
D14*
%TO.C,RGB1*%
X161650000Y-101750000D03*
X161650000Y-105050000D03*
X166550000Y-105050000D03*
X166550000Y-101750000D03*
%TD*%
M02*
