M48
; DRILL file {KiCad 8.0.1} date 2024-05-27T16:44:53-0600
; FORMAT={-:-/ absolute / inch / decimal}
; #@! TF.CreationDate,2024-05-27T16:44:54-06:00
; #@! TF.GenerationSoftware,Kicad,Pcbnew,8.0.1
; #@! TF.FileFunction,Plated,1,2,PTH
FMAT,2
INCH
; #@! TA.AperFunction,Plated,PTH,ViaDrill
T1C0.0118
; #@! TA.AperFunction,Plated,PTH,ComponentDrill
T2C0.0130
; #@! TA.AperFunction,Plated,PTH,ComponentDrill
T3C0.0394
; #@! TA.AperFunction,Plated,PTH,ComponentDrill
T4C0.0500
%
G90
G05
T1
X6.2902Y-3.9493
X6.4343Y-4.4398
X6.5571Y-3.9464
X6.6106Y-4.1767
X6.6127Y-3.975
X6.6772Y-4.4685
X6.7112Y-4.1609
X6.759Y-3.9315
X6.8891Y-3.8949
T2
X6.4878Y-4.3307
X6.4878Y-4.3819
X6.539Y-4.3307
X6.539Y-4.3819
X6.5902Y-4.3307
X6.5902Y-4.3819
X6.7323Y-4.3307
X6.7323Y-4.3819
X6.7835Y-4.3307
X6.7835Y-4.3819
X6.8346Y-4.3307
X6.8346Y-4.3819
T3
X6.2244Y-4.6024
X6.3228Y-4.6024
X6.4906Y-4.5945
X6.5906Y-4.5945
X6.615Y-3.8681
X6.715Y-3.8681
X6.7346Y-4.5945
X6.815Y-3.8681
X6.8346Y-4.5945
X6.9559Y-3.8681
X7.0559Y-3.8681
X7.1559Y-3.8681
X7.2559Y-3.8681
X7.3559Y-3.8681
X7.4559Y-3.8681
X7.5559Y-3.8681
X7.6559Y-3.8681
X7.7559Y-3.8681
T4
X7.0559Y-4.0012
X7.0559Y-4.6012
X7.1559Y-4.0012
X7.1559Y-4.6012
X7.2559Y-4.0012
X7.2559Y-4.6012
X7.3559Y-4.0012
X7.3559Y-4.6012
X7.4559Y-4.0012
X7.4559Y-4.6012
X7.5559Y-4.0012
X7.5559Y-4.6012
X7.6559Y-4.0012
X7.6559Y-4.6012
X7.7559Y-4.0012
X7.7559Y-4.6012
M30
