%TF.GenerationSoftware,KiCad,Pcbnew,8.0.1*%
%TF.CreationDate,2024-05-27T16:44:31-06:00*%
%TF.ProjectId,KETSINI,4b455453-494e-4492-9e6b-696361645f70,rev?*%
%TF.SameCoordinates,Original*%
%TF.FileFunction,Soldermask,Bot*%
%TF.FilePolarity,Negative*%
%FSLAX46Y46*%
G04 Gerber Fmt 4.6, Leading zero omitted, Abs format (unit mm)*
G04 Created by KiCad (PCBNEW 8.0.1) date 2024-05-27 16:44:31*
%MOMM*%
%LPD*%
G01*
G04 APERTURE LIST*
G04 Aperture macros list*
%AMRoundRect*
0 Rectangle with rounded corners*
0 $1 Rounding radius*
0 $2 $3 $4 $5 $6 $7 $8 $9 X,Y pos of 4 corners*
0 Add a 4 corners polygon primitive as box body*
4,1,4,$2,$3,$4,$5,$6,$7,$8,$9,$2,$3,0*
0 Add four circle primitives for the rounded corners*
1,1,$1+$1,$2,$3*
1,1,$1+$1,$4,$5*
1,1,$1+$1,$6,$7*
1,1,$1+$1,$8,$9*
0 Add four rect primitives between the rounded corners*
20,1,$1+$1,$2,$3,$4,$5,0*
20,1,$1+$1,$4,$5,$6,$7,0*
20,1,$1+$1,$6,$7,$8,$9,0*
20,1,$1+$1,$8,$9,$2,$3,0*%
G04 Aperture macros list end*
%ADD10C,0.770000*%
%ADD11R,1.700000X1.700000*%
%ADD12O,1.700000X1.700000*%
%ADD13C,0.900000*%
%ADD14RoundRect,0.250000X0.600000X0.750000X-0.600000X0.750000X-0.600000X-0.750000X0.600000X-0.750000X0*%
%ADD15O,1.700000X2.000000*%
%ADD16C,2.109000*%
%ADD17RoundRect,0.375000X-0.625000X-0.375000X0.625000X-0.375000X0.625000X0.375000X-0.625000X0.375000X0*%
%ADD18RoundRect,0.500000X-0.500000X-1.400000X0.500000X-1.400000X0.500000X1.400000X-0.500000X1.400000X0*%
G04 APERTURE END LIST*
D10*
%TO.C,U1*%
X173600000Y-110000000D03*
X172300000Y-110000000D03*
X171000000Y-110000000D03*
X173600000Y-111300000D03*
X172300000Y-111300000D03*
X171000000Y-111300000D03*
%TD*%
D11*
%TO.C,MA1*%
X171060000Y-116700000D03*
D12*
X173600000Y-116700000D03*
%TD*%
D11*
%TO.C,MB1*%
X164860000Y-116700000D03*
D12*
X167400000Y-116700000D03*
%TD*%
D10*
%TO.C,U2*%
X167390000Y-110000000D03*
X166090000Y-110000000D03*
X164790000Y-110000000D03*
X167390000Y-111300000D03*
X166090000Y-111300000D03*
X164790000Y-111300000D03*
%TD*%
D13*
%TO.C,SW1*%
X158290000Y-109250000D03*
X158290000Y-112250000D03*
%TD*%
D14*
%TO.C,BATTERY1*%
X160600000Y-116900000D03*
D15*
X158100000Y-116900000D03*
%TD*%
D16*
%TO.C,ESP 32 C3*%
X179220000Y-116870000D03*
X181760000Y-116870000D03*
X184300000Y-116870000D03*
X186840000Y-116870000D03*
X191920000Y-116870000D03*
X189380000Y-116870000D03*
X197000000Y-101630000D03*
X197000000Y-116870000D03*
X194460000Y-101630000D03*
X191920000Y-101630000D03*
X189380000Y-101630000D03*
X186840000Y-101630000D03*
X184300000Y-101630000D03*
X181760000Y-101630000D03*
X179220000Y-101630000D03*
X194460000Y-116870000D03*
%TD*%
D11*
%TO.C,ACT1*%
X168020000Y-98250000D03*
D12*
X170560000Y-98250000D03*
X173100000Y-98250000D03*
%TD*%
D11*
%TO.C,J1*%
X197000000Y-98250000D03*
D12*
X194460000Y-98250000D03*
X191920000Y-98250000D03*
X189380000Y-98250000D03*
X186840000Y-98250000D03*
X184300000Y-98250000D03*
X181760000Y-98250000D03*
X179220000Y-98250000D03*
X176680000Y-98250000D03*
%TD*%
D17*
%TO.C,U3*%
X165850000Y-107300000D03*
X165850000Y-105000000D03*
D18*
X172150000Y-105000000D03*
D17*
X165850000Y-102700000D03*
%TD*%
M02*
