%TF.GenerationSoftware,KiCad,Pcbnew,8.0.1*%
%TF.CreationDate,2024-05-27T16:44:31-06:00*%
%TF.ProjectId,KETSINI,4b455453-494e-4492-9e6b-696361645f70,rev?*%
%TF.SameCoordinates,Original*%
%TF.FileFunction,Copper,L1,Top*%
%TF.FilePolarity,Positive*%
%FSLAX46Y46*%
G04 Gerber Fmt 4.6, Leading zero omitted, Abs format (unit mm)*
G04 Created by KiCad (PCBNEW 8.0.1) date 2024-05-27 16:44:31*
%MOMM*%
%LPD*%
G01*
G04 APERTURE LIST*
G04 Aperture macros list*
%AMRoundRect*
0 Rectangle with rounded corners*
0 $1 Rounding radius*
0 $2 $3 $4 $5 $6 $7 $8 $9 X,Y pos of 4 corners*
0 Add a 4 corners polygon primitive as box body*
4,1,4,$2,$3,$4,$5,$6,$7,$8,$9,$2,$3,0*
0 Add four circle primitives for the rounded corners*
1,1,$1+$1,$2,$3*
1,1,$1+$1,$4,$5*
1,1,$1+$1,$6,$7*
1,1,$1+$1,$8,$9*
0 Add four rect primitives between the rounded corners*
20,1,$1+$1,$2,$3,$4,$5,0*
20,1,$1+$1,$4,$5,$6,$7,0*
20,1,$1+$1,$6,$7,$8,$9,0*
20,1,$1+$1,$8,$9,$2,$3,0*%
G04 Aperture macros list end*
%TA.AperFunction,SMDPad,CuDef*%
%ADD10R,0.500000X2.200000*%
%TD*%
%TA.AperFunction,ComponentPad*%
%ADD11C,0.630000*%
%TD*%
%TA.AperFunction,SMDPad,CuDef*%
%ADD12R,4.900000X2.950000*%
%TD*%
%TA.AperFunction,SMDPad,CuDef*%
%ADD13R,0.650000X1.050000*%
%TD*%
%TA.AperFunction,SMDPad,CuDef*%
%ADD14R,1.500000X0.900000*%
%TD*%
%TA.AperFunction,ComponentPad*%
%ADD15R,1.700000X1.700000*%
%TD*%
%TA.AperFunction,ComponentPad*%
%ADD16O,1.700000X1.700000*%
%TD*%
%TA.AperFunction,SMDPad,CuDef*%
%ADD17RoundRect,0.250000X0.450000X-0.350000X0.450000X0.350000X-0.450000X0.350000X-0.450000X-0.350000X0*%
%TD*%
%TA.AperFunction,SMDPad,CuDef*%
%ADD18R,0.800000X1.000000*%
%TD*%
%TA.AperFunction,SMDPad,CuDef*%
%ADD19R,1.500000X0.700000*%
%TD*%
%TA.AperFunction,ComponentPad*%
%ADD20RoundRect,0.250000X0.600000X0.750000X-0.600000X0.750000X-0.600000X-0.750000X0.600000X-0.750000X0*%
%TD*%
%TA.AperFunction,ComponentPad*%
%ADD21O,1.700000X2.000000*%
%TD*%
%TA.AperFunction,ComponentPad*%
%ADD22C,1.905000*%
%TD*%
%TA.AperFunction,ViaPad*%
%ADD23C,0.600000*%
%TD*%
%TA.AperFunction,Conductor*%
%ADD24C,0.200000*%
%TD*%
G04 APERTURE END LIST*
D10*
%TO.P,U1,1,GND*%
%TO.N,GND*%
X174205000Y-107775000D03*
%TO.P,U1,2,IN2*%
%TO.N,MAI1*%
X172935000Y-107775000D03*
%TO.P,U1,3,IN1*%
%TO.N,MAI2*%
X171665000Y-107775000D03*
%TO.P,U1,4,ILIM*%
%TO.N,Net-(U1-ILIM)*%
X170395000Y-107775000D03*
%TO.P,U1,5,VM*%
%TO.N,VM*%
X170395000Y-113525000D03*
%TO.P,U1,6,OUT1*%
%TO.N,MAO1*%
X171665000Y-113525000D03*
%TO.P,U1,7,GND*%
%TO.N,GND*%
X172935000Y-113525000D03*
%TO.P,U1,8,OUT2*%
%TO.N,MAO2*%
X174205000Y-113525000D03*
D11*
%TO.P,U1,9,GND*%
%TO.N,GND*%
X173600000Y-110000000D03*
X172300000Y-110000000D03*
X171000000Y-110000000D03*
D12*
X172300000Y-110650000D03*
D11*
X173600000Y-111300000D03*
X172300000Y-111300000D03*
X171000000Y-111300000D03*
%TD*%
D13*
%TO.P,S3,1*%
%TO.N,BUTTON*%
X159500000Y-101350000D03*
%TO.P,S3,2*%
X159500000Y-105500000D03*
%TO.P,S3,3*%
%TO.N,Vcc*%
X157350000Y-101350000D03*
%TO.P,S3,4*%
X157350000Y-105500000D03*
%TD*%
D14*
%TO.P,RGB2,1,VDD*%
%TO.N,Vcc*%
X169150000Y-101750000D03*
%TO.P,RGB2,2,DOUT*%
%TO.N,unconnected-(RGB2-DOUT-Pad2)*%
X169150000Y-105050000D03*
%TO.P,RGB2,3,VSS*%
%TO.N,GND*%
X174050000Y-105050000D03*
%TO.P,RGB2,4,DIN*%
%TO.N,Net-(RGB1-DOUT)*%
X174050000Y-101750000D03*
%TD*%
D15*
%TO.P,MA1,1,Pin_1*%
%TO.N,MAO1*%
X171060000Y-116700000D03*
D16*
%TO.P,MA1,2,Pin_2*%
%TO.N,MAO2*%
X173600000Y-116700000D03*
%TD*%
D15*
%TO.P,MB1,1,Pin_1*%
%TO.N,MBO1*%
X164860000Y-116700000D03*
D16*
%TO.P,MB1,2,Pin_2*%
%TO.N,MBO2*%
X167400000Y-116700000D03*
%TD*%
D10*
%TO.P,U2,1,GND*%
%TO.N,GND*%
X167995000Y-107775000D03*
%TO.P,U2,2,IN2*%
%TO.N,MBI1*%
X166725000Y-107775000D03*
%TO.P,U2,3,IN1*%
%TO.N,MBI2*%
X165455000Y-107775000D03*
%TO.P,U2,4,ILIM*%
%TO.N,Net-(U2-ILIM)*%
X164185000Y-107775000D03*
%TO.P,U2,5,VM*%
%TO.N,VM*%
X164185000Y-113525000D03*
%TO.P,U2,6,OUT1*%
%TO.N,MBO1*%
X165455000Y-113525000D03*
%TO.P,U2,7,GND*%
%TO.N,GND*%
X166725000Y-113525000D03*
%TO.P,U2,8,OUT2*%
%TO.N,MBO2*%
X167995000Y-113525000D03*
D11*
%TO.P,U2,9,GND*%
%TO.N,GND*%
X167390000Y-110000000D03*
X166090000Y-110000000D03*
X164790000Y-110000000D03*
D12*
X166090000Y-110650000D03*
D11*
X167390000Y-111300000D03*
X166090000Y-111300000D03*
X164790000Y-111300000D03*
%TD*%
D17*
%TO.P,R2,1*%
%TO.N,Net-(U1-ILIM)*%
X164900000Y-99200000D03*
%TO.P,R2,2*%
%TO.N,GND*%
X164900000Y-97200000D03*
%TD*%
%TO.P,R1,1*%
%TO.N,Net-(U2-ILIM)*%
X161950000Y-99200000D03*
%TO.P,R1,2*%
%TO.N,GND*%
X161950000Y-97200000D03*
%TD*%
D18*
%TO.P,SW1,*%
%TO.N,*%
X159400000Y-107100000D03*
X157190000Y-107100000D03*
X159400000Y-114400000D03*
X157190000Y-114400000D03*
D19*
%TO.P,SW1,1,A*%
%TO.N,VM*%
X160050000Y-108500000D03*
%TO.P,SW1,2,B*%
%TO.N,Net-(BATTERY1-Pin_2)*%
X160050000Y-111500000D03*
%TO.P,SW1,3,C*%
%TO.N,unconnected-(SW1-C-Pad3)*%
X160050000Y-113000000D03*
%TD*%
D17*
%TO.P,R3,1*%
%TO.N,BUTTON*%
X158650000Y-99200000D03*
%TO.P,R3,2*%
%TO.N,GND*%
X158650000Y-97200000D03*
%TD*%
D20*
%TO.P,BATTERY1,1,Pin_1*%
%TO.N,GND*%
X160600000Y-116900000D03*
D21*
%TO.P,BATTERY1,2,Pin_2*%
%TO.N,Net-(BATTERY1-Pin_2)*%
X158100000Y-116900000D03*
%TD*%
D22*
%TO.P,ESP 32 C3,0,GPIO0*%
%TO.N,MAI1*%
X179220000Y-116870000D03*
%TO.P,ESP 32 C3,1,GPIO1*%
%TO.N,MAI2*%
X181760000Y-116870000D03*
%TO.P,ESP 32 C3,2,GPIO2*%
%TO.N,MBI1*%
X184300000Y-116870000D03*
%TO.P,ESP 32 C3,3,GPIO3*%
%TO.N,MBI2*%
X186840000Y-116870000D03*
%TO.P,ESP 32 C3,3.3,3V3*%
%TO.N,unconnected-(U4-3V3-Pad3.3)*%
X191920000Y-116870000D03*
%TO.P,ESP 32 C3,4,GPIO4*%
%TO.N,RGB*%
X189380000Y-116870000D03*
%TO.P,ESP 32 C3,5,GPIO5*%
%TO.N,S1*%
X197000000Y-101630000D03*
%TO.P,ESP 32 C3,5V,5V*%
%TO.N,Vcc*%
X197000000Y-116870000D03*
%TO.P,ESP 32 C3,6,GPIO6*%
%TO.N,S2*%
X194460000Y-101630000D03*
%TO.P,ESP 32 C3,7,GPIO7*%
%TO.N,S3*%
X191920000Y-101630000D03*
%TO.P,ESP 32 C3,8,GPIO8*%
%TO.N,S4*%
X189380000Y-101630000D03*
%TO.P,ESP 32 C3,9,GPIO9*%
%TO.N,unconnected-(U4-GPIO9-Pad9)*%
X186840000Y-101630000D03*
%TO.P,ESP 32 C3,10,GPIO10*%
%TO.N,S5*%
X184300000Y-101630000D03*
%TO.P,ESP 32 C3,20,GPIO20*%
%TO.N,BUTTON*%
X181760000Y-101630000D03*
%TO.P,ESP 32 C3,21,GPIO21*%
%TO.N,GO*%
X179220000Y-101630000D03*
%TO.P,ESP 32 C3,G,GND*%
%TO.N,GND*%
X194460000Y-116870000D03*
%TD*%
D15*
%TO.P,ACT1,1,Pin_1*%
%TO.N,Vcc*%
X168020000Y-98250000D03*
D16*
%TO.P,ACT1,2,Pin_2*%
%TO.N,GND*%
X170560000Y-98250000D03*
%TO.P,ACT1,3,Pin_3*%
%TO.N,GO*%
X173100000Y-98250000D03*
%TD*%
D15*
%TO.P,J1,1,Pin_1*%
%TO.N,Vcc*%
X197000000Y-98250000D03*
D16*
%TO.P,J1,2,Pin_2*%
%TO.N,GND*%
X194460000Y-98250000D03*
%TO.P,J1,3,Pin_3*%
%TO.N,S1*%
X191920000Y-98250000D03*
%TO.P,J1,4,Pin_4*%
%TO.N,S2*%
X189380000Y-98250000D03*
%TO.P,J1,5,Pin_5*%
%TO.N,S3*%
X186840000Y-98250000D03*
%TO.P,J1,6,Pin_6*%
%TO.N,S4*%
X184300000Y-98250000D03*
%TO.P,J1,7,Pin_7*%
%TO.N,S5*%
X181760000Y-98250000D03*
%TO.P,J1,8,Pin_8*%
%TO.N,GND*%
X179220000Y-98250000D03*
%TO.P,J1,9,Pin_9*%
%TO.N,Vcc*%
X176680000Y-98250000D03*
%TD*%
D14*
%TO.P,RGB1,1,VDD*%
%TO.N,Vcc*%
X161650000Y-101750000D03*
%TO.P,RGB1,2,DOUT*%
%TO.N,Net-(RGB1-DOUT)*%
X161650000Y-105050000D03*
%TO.P,RGB1,3,VSS*%
%TO.N,GND*%
X166550000Y-105050000D03*
%TO.P,RGB1,4,DIN*%
%TO.N,RGB*%
X166550000Y-101750000D03*
%TD*%
D23*
%TO.N,Net-(U1-ILIM)*%
X166551400Y-100237500D03*
X171677700Y-99859100D03*
%TO.N,VM*%
X163430000Y-112770000D03*
X169600000Y-113500000D03*
%TO.N,MBI1*%
X167909300Y-106087500D03*
%TO.N,MBI2*%
X170465700Y-105686600D03*
%TO.N,BUTTON*%
X174982700Y-98930300D03*
X159770900Y-100313000D03*
%TO.N,RGB*%
X167963400Y-100965300D03*
%TD*%
D24*
%TO.N,Net-(U1-ILIM)*%
X170395000Y-106373300D02*
X171094100Y-106373300D01*
X173788900Y-99859100D02*
X171677700Y-99859100D01*
X171094100Y-106373300D02*
X175101700Y-102365700D01*
X165937500Y-100237500D02*
X166551400Y-100237500D01*
X170395000Y-107775000D02*
X170395000Y-106373300D01*
X175101700Y-101171900D02*
X173788900Y-99859100D01*
X175101700Y-102365700D02*
X175101700Y-101171900D01*
X164900000Y-99200000D02*
X165937500Y-100237500D01*
%TO.N,MAI2*%
X172077300Y-105961000D02*
X174748600Y-105961000D01*
X174748600Y-105961000D02*
X181760000Y-112972400D01*
X171665000Y-106373300D02*
X172077300Y-105961000D01*
X181760000Y-112972400D02*
X181760000Y-116870000D01*
X171665000Y-107775000D02*
X171665000Y-106373300D01*
%TO.N,VM*%
X160050000Y-109390000D02*
X163430000Y-112770000D01*
X169625000Y-113525000D02*
X169600000Y-113500000D01*
X160050000Y-108500000D02*
X160050000Y-109390000D01*
X163430000Y-112770000D02*
X164185000Y-113525000D01*
X170395000Y-113525000D02*
X169625000Y-113525000D01*
%TO.N,MAI1*%
X172935000Y-106373300D02*
X174580000Y-106373300D01*
X179220000Y-111013300D02*
X179220000Y-116870000D01*
X172935000Y-107775000D02*
X172935000Y-106373300D01*
X174580000Y-106373300D02*
X179220000Y-111013300D01*
%TO.N,MBI1*%
X167010800Y-106087500D02*
X166725000Y-106373300D01*
X167909300Y-106087500D02*
X167010800Y-106087500D01*
X166725000Y-107775000D02*
X166725000Y-106373300D01*
%TO.N,MBI2*%
X170465700Y-104733200D02*
X170030800Y-104298300D01*
X170030800Y-104298300D02*
X165653500Y-104298300D01*
X165653500Y-104298300D02*
X165455000Y-104496800D01*
X165455000Y-104496800D02*
X165455000Y-107775000D01*
X170465700Y-105686600D02*
X170465700Y-104733200D01*
%TO.N,Net-(BATTERY1-Pin_2)*%
X161100000Y-114050000D02*
X161100000Y-112150000D01*
X158100000Y-116900000D02*
X158250000Y-116900000D01*
X158250000Y-116900000D02*
X161100000Y-114050000D01*
X161100000Y-112150000D02*
X160450000Y-111500000D01*
X160450000Y-111500000D02*
X160050000Y-111500000D01*
%TO.N,MAO1*%
X171060000Y-115548300D02*
X171665000Y-114943300D01*
X171665000Y-114943300D02*
X171665000Y-113525000D01*
X171060000Y-116700000D02*
X171060000Y-115548300D01*
%TO.N,Net-(U2-ILIM)*%
X161331000Y-106373300D02*
X160598300Y-105640600D01*
X160598300Y-105640600D02*
X160598300Y-100551700D01*
X164185000Y-106373300D02*
X161331000Y-106373300D01*
X164185000Y-107775000D02*
X164185000Y-106373300D01*
X160598300Y-100551700D02*
X161950000Y-99200000D01*
%TO.N,MAO2*%
X174205000Y-114943300D02*
X174205000Y-113525000D01*
X173600000Y-116700000D02*
X173600000Y-115548300D01*
X173600000Y-115548300D02*
X174205000Y-114943300D01*
%TO.N,MBO2*%
X167995000Y-114953300D02*
X167995000Y-113525000D01*
X167400000Y-116700000D02*
X167400000Y-115548300D01*
X167400000Y-115548300D02*
X167995000Y-114953300D01*
%TO.N,MBO1*%
X164860000Y-116700000D02*
X164860000Y-115548300D01*
X165455000Y-114953300D02*
X165455000Y-113525000D01*
X164860000Y-115548300D02*
X165455000Y-114953300D01*
%TO.N,GO*%
X176480000Y-101630000D02*
X179220000Y-101630000D01*
X173100000Y-98250000D02*
X176480000Y-101630000D01*
%TO.N,Vcc*%
X197000000Y-98250000D02*
X195848300Y-98250000D01*
X168400000Y-102500000D02*
X169150000Y-101750000D01*
X169150000Y-99380000D02*
X168020000Y-98250000D01*
X157350000Y-102176700D02*
X157350000Y-104673300D01*
X175931700Y-97098300D02*
X175730000Y-97300000D01*
X175530000Y-97100000D02*
X175730000Y-97300000D01*
X162025000Y-102125000D02*
X162400000Y-102500000D01*
X157350000Y-101350000D02*
X157350000Y-102176700D01*
X161650000Y-101750000D02*
X162025000Y-102125000D01*
X162957200Y-101192800D02*
X162957200Y-98568900D01*
X195848300Y-98250000D02*
X195848300Y-97962000D01*
X162025000Y-102125000D02*
X162957200Y-101192800D01*
X175730000Y-97300000D02*
X176680000Y-98250000D01*
X169170000Y-97100000D02*
X175530000Y-97100000D01*
X168020000Y-98250000D02*
X169170000Y-97100000D01*
X162957200Y-98568900D02*
X162652400Y-98264100D01*
X157350000Y-98853200D02*
X157350000Y-101350000D01*
X157350000Y-105500000D02*
X157350000Y-104673300D01*
X162400000Y-102500000D02*
X168400000Y-102500000D01*
X195848300Y-97962000D02*
X194984600Y-97098300D01*
X194984600Y-97098300D02*
X175931700Y-97098300D01*
X162652400Y-98264100D02*
X157939100Y-98264100D01*
X169150000Y-101750000D02*
X169150000Y-99380000D01*
X157939100Y-98264100D02*
X157350000Y-98853200D01*
%TO.N,BUTTON*%
X159560600Y-100523300D02*
X159500000Y-100523300D01*
X158650000Y-99200000D02*
X158657900Y-99200000D01*
X159500000Y-101350000D02*
X159500000Y-100523300D01*
X179997600Y-99867600D02*
X175920000Y-99867600D01*
X158657900Y-99200000D02*
X159770900Y-100313000D01*
X175920000Y-99867600D02*
X174982700Y-98930300D01*
X159770900Y-100313000D02*
X159560600Y-100523300D01*
X159500000Y-105500000D02*
X159500000Y-101350000D01*
X181760000Y-101630000D02*
X179997600Y-99867600D01*
%TO.N,RGB*%
X167601700Y-101327000D02*
X167601700Y-101750000D01*
X166550000Y-101750000D02*
X167601700Y-101750000D01*
X167963400Y-100965300D02*
X167601700Y-101327000D01*
%TO.N,S3*%
X188590000Y-100000000D02*
X190290000Y-100000000D01*
X186840000Y-98250000D02*
X188590000Y-100000000D01*
X190290000Y-100000000D02*
X191920000Y-101630000D01*
%TO.N,S4*%
X184300000Y-98250000D02*
X186050000Y-100000000D01*
X187750000Y-100000000D02*
X189380000Y-101630000D01*
X186050000Y-100000000D02*
X187750000Y-100000000D01*
%TO.N,S2*%
X191130000Y-100000000D02*
X192830000Y-100000000D01*
X192830000Y-100000000D02*
X194460000Y-101630000D01*
X189380000Y-98250000D02*
X191130000Y-100000000D01*
%TO.N,S5*%
X184300000Y-100790000D02*
X184300000Y-101630000D01*
X181760000Y-98250000D02*
X184300000Y-100790000D01*
%TO.N,S1*%
X195370000Y-100000000D02*
X197000000Y-101630000D01*
X193670000Y-100000000D02*
X195370000Y-100000000D01*
X191920000Y-98250000D02*
X193670000Y-100000000D01*
%TO.N,Net-(RGB1-DOUT)*%
X162701700Y-105050000D02*
X164211100Y-103540600D01*
X171207700Y-103540600D02*
X172998300Y-101750000D01*
X174050000Y-101750000D02*
X172998300Y-101750000D01*
X161650000Y-105050000D02*
X162701700Y-105050000D01*
X164211100Y-103540600D02*
X171207700Y-103540600D01*
%TD*%
%TA.AperFunction,Conductor*%
%TO.N,GND*%
G36*
X169716034Y-106020184D02*
G01*
X169753989Y-106058528D01*
X169797883Y-106128386D01*
X169816883Y-106195623D01*
X169812664Y-106226449D01*
X169794928Y-106292645D01*
X169774420Y-106334863D01*
X169701206Y-106432665D01*
X169701202Y-106432671D01*
X169650908Y-106567517D01*
X169644501Y-106627116D01*
X169644500Y-106627135D01*
X169644500Y-108642187D01*
X169624815Y-108709226D01*
X169594811Y-108741453D01*
X169492812Y-108817809D01*
X169492809Y-108817812D01*
X169406649Y-108932906D01*
X169406645Y-108932913D01*
X169356403Y-109067620D01*
X169356401Y-109067627D01*
X169350000Y-109127155D01*
X169350000Y-110400000D01*
X175250000Y-110400000D01*
X175250000Y-109127172D01*
X175249999Y-109127155D01*
X175243598Y-109067627D01*
X175243596Y-109067620D01*
X175193354Y-108932913D01*
X175193350Y-108932906D01*
X175107190Y-108817812D01*
X175004688Y-108741078D01*
X174962818Y-108685144D01*
X174955000Y-108641812D01*
X174955000Y-107896897D01*
X174974685Y-107829858D01*
X175027489Y-107784103D01*
X175096647Y-107774159D01*
X175160203Y-107803184D01*
X175166681Y-107809216D01*
X178583181Y-111225716D01*
X178616666Y-111287039D01*
X178619500Y-111313397D01*
X178619500Y-115468960D01*
X178599815Y-115535999D01*
X178554519Y-115578014D01*
X178422563Y-115649426D01*
X178422558Y-115649429D01*
X178307374Y-115739081D01*
X178232537Y-115797329D01*
X178232534Y-115797331D01*
X178232534Y-115797332D01*
X178069449Y-115974490D01*
X177937743Y-116176081D01*
X177841017Y-116396594D01*
X177781904Y-116630027D01*
X177762020Y-116869994D01*
X177762020Y-116870005D01*
X177781904Y-117109972D01*
X177841017Y-117343405D01*
X177855314Y-117376000D01*
X177937745Y-117563922D01*
X178069449Y-117765510D01*
X178232537Y-117942671D01*
X178377705Y-118055659D01*
X178422022Y-118090153D01*
X178422561Y-118090572D01*
X178473881Y-118118345D01*
X178633478Y-118204715D01*
X178634336Y-118205179D01*
X178697480Y-118226856D01*
X178790291Y-118258719D01*
X178847306Y-118299104D01*
X178873437Y-118363904D01*
X178860386Y-118432544D01*
X178812297Y-118483232D01*
X178750028Y-118500000D01*
X161687812Y-118500000D01*
X161620773Y-118480315D01*
X161575018Y-118427511D01*
X161565074Y-118358353D01*
X161594099Y-118294797D01*
X161622715Y-118270462D01*
X161668340Y-118242319D01*
X161668344Y-118242316D01*
X161792315Y-118118345D01*
X161884356Y-117969124D01*
X161884358Y-117969119D01*
X161939505Y-117802697D01*
X161939506Y-117802690D01*
X161949999Y-117699986D01*
X161950000Y-117699973D01*
X161950000Y-117150000D01*
X161033012Y-117150000D01*
X161065925Y-117092993D01*
X161100000Y-116965826D01*
X161100000Y-116834174D01*
X161065925Y-116707007D01*
X161033012Y-116650000D01*
X161949999Y-116650000D01*
X161949999Y-116100028D01*
X161949998Y-116100013D01*
X161939505Y-115997302D01*
X161884358Y-115830880D01*
X161884356Y-115830875D01*
X161792315Y-115681654D01*
X161668345Y-115557684D01*
X161519124Y-115465643D01*
X161519119Y-115465641D01*
X161352697Y-115410494D01*
X161352690Y-115410493D01*
X161249986Y-115400000D01*
X160898596Y-115400000D01*
X160831557Y-115380315D01*
X160785802Y-115327511D01*
X160775858Y-115258353D01*
X160804883Y-115194797D01*
X160810897Y-115188337D01*
X161580520Y-114418716D01*
X161659577Y-114281784D01*
X161700501Y-114129057D01*
X161700501Y-113970942D01*
X161700501Y-113963347D01*
X161700500Y-113963329D01*
X161700500Y-112239059D01*
X161700501Y-112239046D01*
X161700501Y-112189098D01*
X161720186Y-112122059D01*
X161772990Y-112076304D01*
X161842148Y-112066360D01*
X161905704Y-112095385D01*
X161912182Y-112101417D01*
X162599298Y-112788533D01*
X162632783Y-112849856D01*
X162634837Y-112862330D01*
X162644630Y-112949249D01*
X162704210Y-113119521D01*
X162704211Y-113119522D01*
X162800184Y-113272262D01*
X162927738Y-113399816D01*
X163080478Y-113495789D01*
X163250745Y-113555368D01*
X163324385Y-113563664D01*
X163388796Y-113590729D01*
X163428352Y-113648323D01*
X163434500Y-113686884D01*
X163434500Y-114672870D01*
X163434501Y-114672876D01*
X163440908Y-114732483D01*
X163491202Y-114867328D01*
X163491206Y-114867335D01*
X163577452Y-114982544D01*
X163577455Y-114982547D01*
X163692664Y-115068793D01*
X163692671Y-115068797D01*
X163737618Y-115085561D01*
X163827517Y-115119091D01*
X163856866Y-115122246D01*
X163921414Y-115148983D01*
X163961263Y-115206375D01*
X163963758Y-115276200D01*
X163928106Y-115336289D01*
X163886943Y-115361717D01*
X163767669Y-115406203D01*
X163767664Y-115406206D01*
X163652455Y-115492452D01*
X163652452Y-115492455D01*
X163566206Y-115607664D01*
X163566202Y-115607671D01*
X163515908Y-115742517D01*
X163509501Y-115802116D01*
X163509500Y-115802135D01*
X163509500Y-117597870D01*
X163509501Y-117597876D01*
X163515908Y-117657483D01*
X163566202Y-117792328D01*
X163566206Y-117792335D01*
X163652452Y-117907544D01*
X163652455Y-117907547D01*
X163767664Y-117993793D01*
X163767671Y-117993797D01*
X163902517Y-118044091D01*
X163902516Y-118044091D01*
X163909444Y-118044835D01*
X163962127Y-118050500D01*
X165757872Y-118050499D01*
X165817483Y-118044091D01*
X165952331Y-117993796D01*
X166067546Y-117907546D01*
X166153796Y-117792331D01*
X166202810Y-117660916D01*
X166244681Y-117604984D01*
X166310145Y-117580566D01*
X166378418Y-117595417D01*
X166406673Y-117616569D01*
X166528599Y-117738495D01*
X166620279Y-117802690D01*
X166722165Y-117874032D01*
X166722167Y-117874033D01*
X166722170Y-117874035D01*
X166936337Y-117973903D01*
X167164592Y-118035063D01*
X167341034Y-118050500D01*
X167399999Y-118055659D01*
X167400000Y-118055659D01*
X167400001Y-118055659D01*
X167458966Y-118050500D01*
X167635408Y-118035063D01*
X167863663Y-117973903D01*
X168077830Y-117874035D01*
X168271401Y-117738495D01*
X168438495Y-117571401D01*
X168574035Y-117377830D01*
X168673903Y-117163663D01*
X168735063Y-116935408D01*
X168755659Y-116700000D01*
X168735063Y-116464592D01*
X168682884Y-116269854D01*
X168673905Y-116236344D01*
X168673904Y-116236343D01*
X168673903Y-116236337D01*
X168574035Y-116022171D01*
X168568729Y-116014592D01*
X168438494Y-115828597D01*
X168291396Y-115681499D01*
X168257911Y-115620176D01*
X168262895Y-115550484D01*
X168291394Y-115506139D01*
X168363713Y-115433821D01*
X168363716Y-115433820D01*
X168475520Y-115322016D01*
X168525639Y-115235204D01*
X168554577Y-115185085D01*
X168595500Y-115032357D01*
X168595500Y-115032348D01*
X168596561Y-115024297D01*
X168598064Y-115024495D01*
X168615185Y-114966191D01*
X168620233Y-114958919D01*
X168688796Y-114867331D01*
X168739091Y-114732483D01*
X168745500Y-114672873D01*
X168745499Y-114074885D01*
X168765183Y-114007849D01*
X168817987Y-113962094D01*
X168887146Y-113952150D01*
X168950702Y-113981175D01*
X168966442Y-113997571D01*
X168970180Y-114002258D01*
X168970184Y-114002262D01*
X169097738Y-114129816D01*
X169250478Y-114225789D01*
X169410503Y-114281784D01*
X169420745Y-114285368D01*
X169420750Y-114285369D01*
X169534383Y-114298172D01*
X169598797Y-114325238D01*
X169638352Y-114382833D01*
X169644500Y-114421392D01*
X169644500Y-114672869D01*
X169644501Y-114672876D01*
X169650908Y-114732483D01*
X169701202Y-114867328D01*
X169701206Y-114867335D01*
X169787452Y-114982544D01*
X169787455Y-114982547D01*
X169902664Y-115068793D01*
X169902671Y-115068797D01*
X170037514Y-115119090D01*
X170037517Y-115119091D01*
X170059102Y-115121411D01*
X170123650Y-115148146D01*
X170163500Y-115205537D01*
X170165996Y-115275363D01*
X170130345Y-115335452D01*
X170089181Y-115360882D01*
X169967669Y-115406203D01*
X169967664Y-115406206D01*
X169852455Y-115492452D01*
X169852452Y-115492455D01*
X169766206Y-115607664D01*
X169766202Y-115607671D01*
X169715908Y-115742517D01*
X169709501Y-115802116D01*
X169709500Y-115802135D01*
X169709500Y-117597870D01*
X169709501Y-117597876D01*
X169715908Y-117657483D01*
X169766202Y-117792328D01*
X169766206Y-117792335D01*
X169852452Y-117907544D01*
X169852455Y-117907547D01*
X169967664Y-117993793D01*
X169967671Y-117993797D01*
X170102517Y-118044091D01*
X170102516Y-118044091D01*
X170109444Y-118044835D01*
X170162127Y-118050500D01*
X171957872Y-118050499D01*
X172017483Y-118044091D01*
X172152331Y-117993796D01*
X172267546Y-117907546D01*
X172353796Y-117792331D01*
X172402810Y-117660916D01*
X172444681Y-117604984D01*
X172510145Y-117580566D01*
X172578418Y-117595417D01*
X172606673Y-117616569D01*
X172728599Y-117738495D01*
X172820279Y-117802690D01*
X172922165Y-117874032D01*
X172922167Y-117874033D01*
X172922170Y-117874035D01*
X173136337Y-117973903D01*
X173364592Y-118035063D01*
X173541034Y-118050500D01*
X173599999Y-118055659D01*
X173600000Y-118055659D01*
X173600001Y-118055659D01*
X173658966Y-118050500D01*
X173835408Y-118035063D01*
X174063663Y-117973903D01*
X174277830Y-117874035D01*
X174471401Y-117738495D01*
X174638495Y-117571401D01*
X174774035Y-117377830D01*
X174873903Y-117163663D01*
X174935063Y-116935408D01*
X174955659Y-116700000D01*
X174935063Y-116464592D01*
X174882884Y-116269854D01*
X174873905Y-116236344D01*
X174873904Y-116236343D01*
X174873903Y-116236337D01*
X174863161Y-116213300D01*
X175900934Y-116213300D01*
X175904695Y-116227334D01*
X175905981Y-116232588D01*
X175913066Y-116264546D01*
X175914121Y-116269854D01*
X175921684Y-116312749D01*
X175922507Y-116318096D01*
X175926778Y-116350539D01*
X175927367Y-116355916D01*
X175940299Y-116503733D01*
X176812565Y-117376000D01*
X176819768Y-117376000D01*
X176809377Y-117334964D01*
X176808222Y-117329972D01*
X176801857Y-117299618D01*
X176800908Y-117294574D01*
X176794118Y-117253873D01*
X176793380Y-117248805D01*
X176789546Y-117218044D01*
X176789018Y-117212948D01*
X176765725Y-116931853D01*
X176765407Y-116926736D01*
X176764126Y-116895755D01*
X176764020Y-116890632D01*
X176764020Y-116849368D01*
X176764126Y-116844245D01*
X176765407Y-116813264D01*
X176765725Y-116808147D01*
X176789018Y-116527052D01*
X176789546Y-116521956D01*
X176793380Y-116491195D01*
X176794118Y-116486127D01*
X176800908Y-116445426D01*
X176801857Y-116440382D01*
X176808222Y-116410028D01*
X176809377Y-116405036D01*
X176878621Y-116131596D01*
X176879982Y-116126653D01*
X176888833Y-116096924D01*
X176890398Y-116092041D01*
X176903798Y-116053012D01*
X176905560Y-116048205D01*
X176916827Y-116019329D01*
X176918789Y-116014592D01*
X177032091Y-115756290D01*
X177034248Y-115751636D01*
X177047868Y-115723778D01*
X177050211Y-115719226D01*
X177069850Y-115682935D01*
X177072384Y-115678476D01*
X177088255Y-115651842D01*
X177090968Y-115647495D01*
X177137297Y-115576582D01*
X176837475Y-115276760D01*
X175900934Y-116213300D01*
X174863161Y-116213300D01*
X174774035Y-116022171D01*
X174768729Y-116014592D01*
X174638494Y-115828597D01*
X174491396Y-115681499D01*
X174457911Y-115620176D01*
X174462895Y-115550484D01*
X174491394Y-115506139D01*
X174563506Y-115434028D01*
X174563511Y-115434024D01*
X174573714Y-115423820D01*
X174573716Y-115423820D01*
X174685520Y-115312016D01*
X174761979Y-115179585D01*
X174761982Y-115179579D01*
X174762244Y-115179123D01*
X174764577Y-115175085D01*
X174805500Y-115022358D01*
X174805500Y-115022346D01*
X174806121Y-115017633D01*
X174829793Y-114959505D01*
X174898796Y-114867331D01*
X174949091Y-114732483D01*
X174955500Y-114672873D01*
X174955499Y-112996636D01*
X175968736Y-112996636D01*
X176837475Y-113865375D01*
X177621500Y-113081351D01*
X177621500Y-112525251D01*
X176837475Y-111741226D01*
X176235425Y-112343275D01*
X176232545Y-112370069D01*
X176231478Y-112377738D01*
X176223572Y-112423916D01*
X176222028Y-112431501D01*
X176207685Y-112492212D01*
X176205668Y-112499695D01*
X176192058Y-112544564D01*
X176189579Y-112551904D01*
X176115970Y-112749261D01*
X176112581Y-112757441D01*
X176090323Y-112806177D01*
X176086362Y-112814091D01*
X176052185Y-112876681D01*
X176047667Y-112884295D01*
X176018703Y-112929362D01*
X176013655Y-112936633D01*
X175968736Y-112996636D01*
X174955499Y-112996636D01*
X174955499Y-112657812D01*
X174975184Y-112590774D01*
X175005188Y-112558546D01*
X175107191Y-112482186D01*
X175193350Y-112367093D01*
X175193354Y-112367086D01*
X175243596Y-112232379D01*
X175243598Y-112232372D01*
X175249999Y-112172844D01*
X175250000Y-112172827D01*
X175250000Y-110900000D01*
X169350000Y-110900000D01*
X169350000Y-112172844D01*
X169356401Y-112232372D01*
X169356403Y-112232379D01*
X169406645Y-112367086D01*
X169406649Y-112367093D01*
X169492809Y-112482186D01*
X169502848Y-112489702D01*
X169544719Y-112545636D01*
X169549703Y-112615328D01*
X169516218Y-112676651D01*
X169454894Y-112710135D01*
X169442421Y-112712189D01*
X169420749Y-112714630D01*
X169420745Y-112714631D01*
X169250476Y-112774211D01*
X169097737Y-112870184D01*
X168970180Y-112997741D01*
X168966442Y-113002429D01*
X168909252Y-113042567D01*
X168839440Y-113045414D01*
X168779172Y-113010065D01*
X168747582Y-112947745D01*
X168745499Y-112925112D01*
X168745499Y-112657813D01*
X168765184Y-112590774D01*
X168795188Y-112558546D01*
X168897191Y-112482186D01*
X168983350Y-112367093D01*
X168983354Y-112367086D01*
X169033596Y-112232379D01*
X169033598Y-112232372D01*
X169039999Y-112172844D01*
X169040000Y-112172827D01*
X169040000Y-110900000D01*
X163140000Y-110900000D01*
X163140000Y-111331403D01*
X163120315Y-111398442D01*
X163067511Y-111444197D01*
X162998353Y-111454141D01*
X162934797Y-111425116D01*
X162928319Y-111419084D01*
X161004473Y-109495238D01*
X160970988Y-109433915D01*
X160975972Y-109364223D01*
X161017844Y-109308290D01*
X161035020Y-109298915D01*
X161034546Y-109298047D01*
X161042326Y-109293797D01*
X161042331Y-109293796D01*
X161157546Y-109207546D01*
X161243796Y-109092331D01*
X161294091Y-108957483D01*
X161300500Y-108897873D01*
X161300499Y-108102128D01*
X161294229Y-108043797D01*
X161294091Y-108042516D01*
X161243797Y-107907671D01*
X161243793Y-107907664D01*
X161157547Y-107792455D01*
X161157544Y-107792452D01*
X161042335Y-107706206D01*
X161042328Y-107706202D01*
X160907482Y-107655908D01*
X160907483Y-107655908D01*
X160847883Y-107649501D01*
X160847881Y-107649500D01*
X160847873Y-107649500D01*
X160847865Y-107649500D01*
X160424500Y-107649500D01*
X160357461Y-107629815D01*
X160311706Y-107577011D01*
X160300500Y-107525500D01*
X160300499Y-106552129D01*
X160300498Y-106552123D01*
X160300497Y-106552116D01*
X160294695Y-106498135D01*
X160307102Y-106429376D01*
X160354713Y-106378239D01*
X160422412Y-106360961D01*
X160488706Y-106383027D01*
X160505666Y-106397201D01*
X160846139Y-106737674D01*
X160846149Y-106737685D01*
X160850479Y-106742015D01*
X160850480Y-106742016D01*
X160962284Y-106853820D01*
X161030259Y-106893065D01*
X161099215Y-106932877D01*
X161251942Y-106973800D01*
X161251943Y-106973800D01*
X163310500Y-106973800D01*
X163377539Y-106993485D01*
X163423294Y-107046289D01*
X163434500Y-107097800D01*
X163434500Y-108642187D01*
X163414815Y-108709226D01*
X163384811Y-108741453D01*
X163282812Y-108817809D01*
X163282809Y-108817812D01*
X163196649Y-108932906D01*
X163196645Y-108932913D01*
X163146403Y-109067620D01*
X163146401Y-109067627D01*
X163140000Y-109127155D01*
X163140000Y-110400000D01*
X169040000Y-110400000D01*
X169040000Y-109127172D01*
X169039999Y-109127155D01*
X169033598Y-109067627D01*
X169033596Y-109067620D01*
X168983354Y-108932913D01*
X168983350Y-108932906D01*
X168897190Y-108817812D01*
X168794688Y-108741078D01*
X168752818Y-108685144D01*
X168745000Y-108641812D01*
X168745000Y-108025000D01*
X168245000Y-108025000D01*
X168245000Y-109294000D01*
X168225315Y-109361039D01*
X168172511Y-109406794D01*
X168121000Y-109418000D01*
X168021396Y-109418000D01*
X168085793Y-109482398D01*
X168119277Y-109543722D01*
X168114292Y-109613414D01*
X168085792Y-109657760D01*
X167477681Y-110265872D01*
X167416358Y-110299357D01*
X167346667Y-110294373D01*
X167302319Y-110265872D01*
X167124128Y-110087681D01*
X167094172Y-110032821D01*
X167225000Y-110032821D01*
X167250119Y-110093465D01*
X167296535Y-110139881D01*
X167357179Y-110165000D01*
X167422821Y-110165000D01*
X167483465Y-110139881D01*
X167529881Y-110093465D01*
X167555000Y-110032821D01*
X167555000Y-109967179D01*
X167529881Y-109906535D01*
X167483465Y-109860119D01*
X167422821Y-109835000D01*
X167357179Y-109835000D01*
X167296535Y-109860119D01*
X167250119Y-109906535D01*
X167225000Y-109967179D01*
X167225000Y-110032821D01*
X167094172Y-110032821D01*
X167090643Y-110026358D01*
X167095627Y-109956666D01*
X167124128Y-109912319D01*
X167744999Y-109291447D01*
X167745000Y-109291446D01*
X167745000Y-107649000D01*
X167764685Y-107581961D01*
X167817489Y-107536206D01*
X167869000Y-107525000D01*
X168745000Y-107525000D01*
X168745000Y-106627172D01*
X168744999Y-106627155D01*
X168738598Y-106567627D01*
X168738597Y-106567623D01*
X168688350Y-106432906D01*
X168684101Y-106425124D01*
X168687006Y-106423537D01*
X168668217Y-106373175D01*
X168674858Y-106323368D01*
X168694668Y-106266755D01*
X168697795Y-106239003D01*
X168712261Y-106110616D01*
X168739327Y-106046202D01*
X168796922Y-106006647D01*
X168835481Y-106000499D01*
X169648995Y-106000499D01*
X169716034Y-106020184D01*
G37*
%TD.AperFunction*%
%TA.AperFunction,Conductor*%
G36*
X193897271Y-117170785D02*
G01*
X193966764Y-117274789D01*
X194055211Y-117363236D01*
X194159215Y-117432729D01*
X194223991Y-117459560D01*
X193623790Y-118059761D01*
X193623791Y-118059762D01*
X193662832Y-118090149D01*
X193662838Y-118090153D01*
X193874531Y-118204715D01*
X193874545Y-118204721D01*
X194031831Y-118258719D01*
X194088847Y-118299105D01*
X194114977Y-118363904D01*
X194101925Y-118432544D01*
X194053836Y-118483232D01*
X193991568Y-118500000D01*
X192389972Y-118500000D01*
X192322933Y-118480315D01*
X192277178Y-118427511D01*
X192267234Y-118358353D01*
X192296259Y-118294797D01*
X192349709Y-118258719D01*
X192418723Y-118235025D01*
X192505664Y-118205179D01*
X192717439Y-118090572D01*
X192907463Y-117942671D01*
X193070551Y-117765510D01*
X193086490Y-117741114D01*
X193139633Y-117695758D01*
X193208864Y-117686333D01*
X193244216Y-117702799D01*
X193270880Y-117705564D01*
X193870438Y-117106006D01*
X193897271Y-117170785D01*
G37*
%TD.AperFunction*%
%TA.AperFunction,Conductor*%
G36*
X195649118Y-117705564D02*
G01*
X195670094Y-117703388D01*
X195679037Y-117695757D01*
X195748268Y-117686333D01*
X195811604Y-117715834D01*
X195833510Y-117741114D01*
X195849446Y-117765507D01*
X195849448Y-117765509D01*
X195849449Y-117765510D01*
X196012537Y-117942671D01*
X196157705Y-118055659D01*
X196202022Y-118090153D01*
X196202561Y-118090572D01*
X196253881Y-118118345D01*
X196413478Y-118204715D01*
X196414336Y-118205179D01*
X196477480Y-118226856D01*
X196570291Y-118258719D01*
X196627306Y-118299104D01*
X196653437Y-118363904D01*
X196640386Y-118432544D01*
X196592297Y-118483232D01*
X196530028Y-118500000D01*
X194928432Y-118500000D01*
X194861393Y-118480315D01*
X194815638Y-118427511D01*
X194805694Y-118358353D01*
X194834719Y-118294797D01*
X194888169Y-118258719D01*
X195045454Y-118204721D01*
X195045468Y-118204715D01*
X195257160Y-118090154D01*
X195257168Y-118090149D01*
X195296207Y-118059762D01*
X195296208Y-118059760D01*
X194696008Y-117459560D01*
X194760785Y-117432729D01*
X194864789Y-117363236D01*
X194953236Y-117274789D01*
X195022729Y-117170785D01*
X195049560Y-117106007D01*
X195649118Y-117705564D01*
G37*
%TD.AperFunction*%
%TA.AperFunction,Conductor*%
G36*
X198693039Y-96519685D02*
G01*
X198738794Y-96572489D01*
X198750000Y-96624000D01*
X198750000Y-118376000D01*
X198730315Y-118443039D01*
X198677511Y-118488794D01*
X198626000Y-118500000D01*
X197469972Y-118500000D01*
X197402933Y-118480315D01*
X197357178Y-118427511D01*
X197347234Y-118358353D01*
X197376259Y-118294797D01*
X197429709Y-118258719D01*
X197498723Y-118235025D01*
X197585664Y-118205179D01*
X197797439Y-118090572D01*
X197987463Y-117942671D01*
X198150551Y-117765510D01*
X198282255Y-117563922D01*
X198378983Y-117343405D01*
X198438095Y-117109976D01*
X198455846Y-116895755D01*
X198457980Y-116870005D01*
X198457980Y-116869994D01*
X198438095Y-116630027D01*
X198438095Y-116630024D01*
X198378983Y-116396595D01*
X198282255Y-116176078D01*
X198150551Y-115974490D01*
X197987463Y-115797329D01*
X197812956Y-115661505D01*
X197797441Y-115649429D01*
X197585665Y-115534821D01*
X197585656Y-115534818D01*
X197357916Y-115456634D01*
X197161269Y-115423820D01*
X197120399Y-115417000D01*
X196879601Y-115417000D01*
X196838731Y-115423820D01*
X196642083Y-115456634D01*
X196414343Y-115534818D01*
X196414334Y-115534821D01*
X196202558Y-115649429D01*
X196087374Y-115739081D01*
X196012537Y-115797329D01*
X196012534Y-115797331D01*
X196012534Y-115797332D01*
X195849450Y-115974488D01*
X195849446Y-115974494D01*
X195833507Y-115998889D01*
X195780359Y-116044244D01*
X195711127Y-116053665D01*
X195675782Y-116037199D01*
X195649117Y-116034434D01*
X195049560Y-116633991D01*
X195022729Y-116569215D01*
X194953236Y-116465211D01*
X194864789Y-116376764D01*
X194760785Y-116307271D01*
X194696007Y-116280438D01*
X195296208Y-115680237D01*
X195296208Y-115680236D01*
X195257166Y-115649849D01*
X195257161Y-115649846D01*
X195045468Y-115535284D01*
X195045454Y-115535278D01*
X194817792Y-115457120D01*
X194580358Y-115417500D01*
X194339642Y-115417500D01*
X194102207Y-115457120D01*
X193874545Y-115535278D01*
X193874531Y-115535284D01*
X193662837Y-115649846D01*
X193662826Y-115649853D01*
X193623791Y-115680235D01*
X193623791Y-115680237D01*
X194223992Y-116280438D01*
X194159215Y-116307271D01*
X194055211Y-116376764D01*
X193966764Y-116465211D01*
X193897271Y-116569215D01*
X193870439Y-116633992D01*
X193270881Y-116034434D01*
X193249900Y-116036610D01*
X193240958Y-116044242D01*
X193171727Y-116053664D01*
X193108392Y-116024162D01*
X193086490Y-115998885D01*
X193070554Y-115974494D01*
X193070552Y-115974492D01*
X193070551Y-115974490D01*
X192907463Y-115797329D01*
X192732956Y-115661505D01*
X192717441Y-115649429D01*
X192505665Y-115534821D01*
X192505656Y-115534818D01*
X192277916Y-115456634D01*
X192081269Y-115423820D01*
X192040399Y-115417000D01*
X191799601Y-115417000D01*
X191758731Y-115423820D01*
X191562083Y-115456634D01*
X191334343Y-115534818D01*
X191334334Y-115534821D01*
X191122558Y-115649429D01*
X191007374Y-115739081D01*
X190932537Y-115797329D01*
X190769449Y-115974490D01*
X190753808Y-115998431D01*
X190700661Y-116043787D01*
X190631430Y-116053210D01*
X190568094Y-116023707D01*
X190546192Y-115998431D01*
X190530551Y-115974490D01*
X190367463Y-115797329D01*
X190192956Y-115661505D01*
X190177441Y-115649429D01*
X189965665Y-115534821D01*
X189965656Y-115534818D01*
X189737916Y-115456634D01*
X189541269Y-115423820D01*
X189500399Y-115417000D01*
X189259601Y-115417000D01*
X189218731Y-115423820D01*
X189022083Y-115456634D01*
X188794343Y-115534818D01*
X188794334Y-115534821D01*
X188582558Y-115649429D01*
X188467374Y-115739081D01*
X188392537Y-115797329D01*
X188229449Y-115974490D01*
X188213808Y-115998431D01*
X188160661Y-116043787D01*
X188091430Y-116053210D01*
X188028094Y-116023707D01*
X188006192Y-115998431D01*
X187990551Y-115974490D01*
X187827463Y-115797329D01*
X187652956Y-115661505D01*
X187637441Y-115649429D01*
X187425665Y-115534821D01*
X187425656Y-115534818D01*
X187197916Y-115456634D01*
X187001269Y-115423820D01*
X186960399Y-115417000D01*
X186719601Y-115417000D01*
X186678731Y-115423820D01*
X186482083Y-115456634D01*
X186254343Y-115534818D01*
X186254334Y-115534821D01*
X186042558Y-115649429D01*
X185927374Y-115739081D01*
X185852537Y-115797329D01*
X185689449Y-115974490D01*
X185673808Y-115998431D01*
X185620661Y-116043787D01*
X185551430Y-116053210D01*
X185488094Y-116023707D01*
X185466192Y-115998431D01*
X185450551Y-115974490D01*
X185287463Y-115797329D01*
X185112956Y-115661505D01*
X185097441Y-115649429D01*
X184885665Y-115534821D01*
X184885656Y-115534818D01*
X184657916Y-115456634D01*
X184461269Y-115423820D01*
X184420399Y-115417000D01*
X184179601Y-115417000D01*
X184138731Y-115423820D01*
X183942083Y-115456634D01*
X183714343Y-115534818D01*
X183714334Y-115534821D01*
X183502558Y-115649429D01*
X183387374Y-115739081D01*
X183312537Y-115797329D01*
X183149449Y-115974490D01*
X183133808Y-115998431D01*
X183080661Y-116043787D01*
X183011430Y-116053210D01*
X182948094Y-116023707D01*
X182926192Y-115998431D01*
X182910551Y-115974490D01*
X182747463Y-115797329D01*
X182572956Y-115661505D01*
X182557441Y-115649429D01*
X182557436Y-115649426D01*
X182425481Y-115578014D01*
X182375891Y-115528794D01*
X182360500Y-115468960D01*
X182360500Y-114456639D01*
X184728662Y-114456639D01*
X184842525Y-114475640D01*
X184847562Y-114476588D01*
X184877904Y-114482950D01*
X184882894Y-114484105D01*
X184922897Y-114494234D01*
X184927841Y-114495595D01*
X184957565Y-114504444D01*
X184962447Y-114506008D01*
X185229227Y-114597594D01*
X185234041Y-114599359D01*
X185262922Y-114610629D01*
X185267652Y-114612588D01*
X185305440Y-114629162D01*
X185310094Y-114631319D01*
X185337956Y-114644940D01*
X185342512Y-114647285D01*
X185570000Y-114770394D01*
X185797488Y-114647285D01*
X185802044Y-114644940D01*
X185829906Y-114631319D01*
X185834560Y-114629162D01*
X185872348Y-114612588D01*
X185877078Y-114610629D01*
X185905959Y-114599359D01*
X185910773Y-114597594D01*
X185988040Y-114571068D01*
X188149769Y-114571068D01*
X188265138Y-114686437D01*
X188337488Y-114647285D01*
X188342044Y-114644940D01*
X188369906Y-114631319D01*
X188374560Y-114629162D01*
X188412348Y-114612588D01*
X188417078Y-114610629D01*
X188445959Y-114599359D01*
X188450773Y-114597594D01*
X188717553Y-114506008D01*
X188722435Y-114504444D01*
X188752159Y-114495595D01*
X188757103Y-114494234D01*
X188797106Y-114484105D01*
X188802096Y-114482950D01*
X188832438Y-114476588D01*
X188837475Y-114475640D01*
X189115687Y-114429215D01*
X189120760Y-114428476D01*
X189151529Y-114424641D01*
X189156625Y-114424113D01*
X189197748Y-114420705D01*
X189202866Y-114420387D01*
X189233846Y-114419106D01*
X189238969Y-114419000D01*
X189521031Y-114419000D01*
X189526154Y-114419106D01*
X189557134Y-114420387D01*
X189562252Y-114420705D01*
X189603375Y-114424113D01*
X189608471Y-114424641D01*
X189639240Y-114428476D01*
X189644313Y-114429215D01*
X189922525Y-114475640D01*
X189927562Y-114476588D01*
X189957904Y-114482950D01*
X189962894Y-114484105D01*
X190002897Y-114494234D01*
X190007841Y-114495595D01*
X190037565Y-114504444D01*
X190042447Y-114506008D01*
X190263194Y-114581790D01*
X190273918Y-114571067D01*
X190121851Y-114419000D01*
X191837371Y-114419000D01*
X192061031Y-114419000D01*
X192066154Y-114419106D01*
X192097134Y-114420387D01*
X192102252Y-114420705D01*
X192143375Y-114424113D01*
X192148471Y-114424641D01*
X192179240Y-114428476D01*
X192184313Y-114429215D01*
X192462525Y-114475640D01*
X192467562Y-114476588D01*
X192497904Y-114482950D01*
X192502894Y-114484105D01*
X192542897Y-114494234D01*
X192547841Y-114495595D01*
X192577565Y-114504444D01*
X192582447Y-114506008D01*
X192849227Y-114597594D01*
X192854041Y-114599359D01*
X192882922Y-114610629D01*
X192887652Y-114612588D01*
X192925440Y-114629162D01*
X192930094Y-114631319D01*
X192957956Y-114644940D01*
X192962512Y-114647285D01*
X193190525Y-114770679D01*
X193417692Y-114647744D01*
X193422248Y-114645399D01*
X193450108Y-114631779D01*
X193454761Y-114629622D01*
X193492548Y-114613048D01*
X193497281Y-114611088D01*
X193526161Y-114599819D01*
X193530973Y-114598055D01*
X193676271Y-114548173D01*
X195243731Y-114548173D01*
X195389027Y-114598055D01*
X195393839Y-114599819D01*
X195422719Y-114611088D01*
X195427452Y-114613048D01*
X195465239Y-114629622D01*
X195469892Y-114631779D01*
X195497752Y-114645399D01*
X195502308Y-114647744D01*
X195729474Y-114770679D01*
X195957488Y-114647285D01*
X195962044Y-114644940D01*
X195989906Y-114631319D01*
X195994560Y-114629162D01*
X196032348Y-114612588D01*
X196037078Y-114610629D01*
X196065959Y-114599359D01*
X196070773Y-114597594D01*
X196337553Y-114506008D01*
X196342435Y-114504444D01*
X196372159Y-114495595D01*
X196377103Y-114494234D01*
X196417106Y-114484105D01*
X196422096Y-114482950D01*
X196452438Y-114476588D01*
X196457475Y-114475640D01*
X196735687Y-114429215D01*
X196740760Y-114428476D01*
X196771529Y-114424641D01*
X196776625Y-114424113D01*
X196817748Y-114420705D01*
X196822866Y-114420387D01*
X196853846Y-114419106D01*
X196858969Y-114419000D01*
X197141031Y-114419000D01*
X197146154Y-114419106D01*
X197177134Y-114420387D01*
X197182252Y-114420705D01*
X197195741Y-114421822D01*
X196282912Y-113508993D01*
X195243731Y-114548173D01*
X193676271Y-114548173D01*
X193758372Y-114519987D01*
X192747378Y-113508993D01*
X191837371Y-114419000D01*
X190121851Y-114419000D01*
X189211844Y-113508993D01*
X188149769Y-114571068D01*
X185988040Y-114571068D01*
X186177553Y-114506008D01*
X186182435Y-114504444D01*
X186212159Y-114495595D01*
X186217103Y-114494234D01*
X186257106Y-114484105D01*
X186262096Y-114482950D01*
X186292438Y-114476588D01*
X186297475Y-114475640D01*
X186575687Y-114429215D01*
X186580760Y-114428476D01*
X186594126Y-114426809D01*
X185676309Y-113508992D01*
X184728662Y-114456639D01*
X182360500Y-114456639D01*
X182360500Y-113061459D01*
X182360501Y-113061446D01*
X182360501Y-112893345D01*
X182360501Y-112893343D01*
X182319577Y-112740615D01*
X182290639Y-112690495D01*
X182240520Y-112603684D01*
X182128716Y-112491880D01*
X182128715Y-112491879D01*
X182124385Y-112487549D01*
X182124374Y-112487539D01*
X182030637Y-112393802D01*
X183255965Y-112393802D01*
X183256970Y-112396472D01*
X183272756Y-112442977D01*
X183275111Y-112450741D01*
X183332952Y-112666602D01*
X183334794Y-112674505D01*
X183344372Y-112722657D01*
X183345694Y-112730659D01*
X183354227Y-112795459D01*
X183355022Y-112803536D01*
X183358235Y-112852546D01*
X183358501Y-112860658D01*
X183358501Y-113092436D01*
X183358500Y-113092460D01*
X183358500Y-113315333D01*
X183908543Y-113865376D01*
X184970618Y-112803301D01*
X186382002Y-112803301D01*
X187444077Y-113865376D01*
X188506152Y-112803301D01*
X189917536Y-112803301D01*
X190979611Y-113865376D01*
X192041686Y-112803301D01*
X193453070Y-112803301D01*
X194515145Y-113865376D01*
X195577220Y-112803301D01*
X196988604Y-112803301D01*
X197676000Y-113490697D01*
X197676000Y-112115905D01*
X196988604Y-112803301D01*
X195577220Y-112803301D01*
X194515145Y-111741226D01*
X193453070Y-112803301D01*
X192041686Y-112803301D01*
X190979611Y-111741226D01*
X189917536Y-112803301D01*
X188506152Y-112803301D01*
X187444077Y-111741226D01*
X186382002Y-112803301D01*
X184970618Y-112803301D01*
X183908542Y-111741225D01*
X183255965Y-112393802D01*
X182030637Y-112393802D01*
X180169843Y-110533008D01*
X181581227Y-110533008D01*
X182643302Y-111595083D01*
X183202851Y-111035534D01*
X184614235Y-111035534D01*
X185676310Y-112097609D01*
X186738385Y-111035534D01*
X188149769Y-111035534D01*
X189211844Y-112097609D01*
X190273919Y-111035534D01*
X191685303Y-111035534D01*
X192747378Y-112097609D01*
X193809453Y-111035534D01*
X195220837Y-111035534D01*
X196282912Y-112097609D01*
X197344987Y-111035534D01*
X196282912Y-109973459D01*
X195220837Y-111035534D01*
X193809453Y-111035534D01*
X192747378Y-109973459D01*
X191685303Y-111035534D01*
X190273919Y-111035534D01*
X189211844Y-109973459D01*
X188149769Y-111035534D01*
X186738385Y-111035534D01*
X185676310Y-109973459D01*
X184614235Y-111035534D01*
X183202851Y-111035534D01*
X182140776Y-109973459D01*
X181581227Y-110533008D01*
X180169843Y-110533008D01*
X178402076Y-108765241D01*
X179813460Y-108765241D01*
X180875535Y-109827316D01*
X181435084Y-109267767D01*
X182846468Y-109267767D01*
X183908543Y-110329842D01*
X184970618Y-109267767D01*
X186382002Y-109267767D01*
X187444077Y-110329842D01*
X188506152Y-109267767D01*
X189917536Y-109267767D01*
X190979611Y-110329842D01*
X192041686Y-109267767D01*
X193453070Y-109267767D01*
X194515145Y-110329842D01*
X195577220Y-109267767D01*
X196988604Y-109267767D01*
X197676000Y-109955163D01*
X197676000Y-108580371D01*
X196988604Y-109267767D01*
X195577220Y-109267767D01*
X194515145Y-108205692D01*
X193453070Y-109267767D01*
X192041686Y-109267767D01*
X190979611Y-108205692D01*
X189917536Y-109267767D01*
X188506152Y-109267767D01*
X187444077Y-108205692D01*
X186382002Y-109267767D01*
X184970618Y-109267767D01*
X183908543Y-108205692D01*
X182846468Y-109267767D01*
X181435084Y-109267767D01*
X180373009Y-108205692D01*
X179813460Y-108765241D01*
X178402076Y-108765241D01*
X176634309Y-106997474D01*
X178045693Y-106997474D01*
X179107768Y-108059549D01*
X179667317Y-107500000D01*
X181078701Y-107500000D01*
X182140776Y-108562075D01*
X183202851Y-107500000D01*
X184614235Y-107500000D01*
X185676310Y-108562075D01*
X186738385Y-107500000D01*
X188149769Y-107500000D01*
X189211844Y-108562075D01*
X190273919Y-107500000D01*
X191685303Y-107500000D01*
X192747378Y-108562075D01*
X193809453Y-107500000D01*
X195220837Y-107500000D01*
X196282912Y-108562075D01*
X197344987Y-107500000D01*
X196282912Y-106437925D01*
X195220837Y-107500000D01*
X193809453Y-107500000D01*
X192747378Y-106437925D01*
X191685303Y-107500000D01*
X190273919Y-107500000D01*
X189211844Y-106437925D01*
X188149769Y-107500000D01*
X186738385Y-107500000D01*
X185676310Y-106437925D01*
X184614235Y-107500000D01*
X183202851Y-107500000D01*
X182140776Y-106437925D01*
X181078701Y-107500000D01*
X179667317Y-107500000D01*
X178605242Y-106437925D01*
X178045693Y-106997474D01*
X176634309Y-106997474D01*
X175330753Y-105693918D01*
X175297268Y-105632595D01*
X175295145Y-105592978D01*
X175299999Y-105547837D01*
X175300000Y-105547827D01*
X175300000Y-105300000D01*
X173924000Y-105300000D01*
X173856961Y-105280315D01*
X173830503Y-105249781D01*
X176298000Y-105249781D01*
X177340001Y-106291782D01*
X177899550Y-105732233D01*
X179310934Y-105732233D01*
X180373009Y-106794308D01*
X181435084Y-105732233D01*
X182846468Y-105732233D01*
X183908543Y-106794308D01*
X184970618Y-105732233D01*
X186382002Y-105732233D01*
X187444077Y-106794308D01*
X188506152Y-105732233D01*
X189917536Y-105732233D01*
X190979611Y-106794308D01*
X192041686Y-105732233D01*
X193453070Y-105732233D01*
X194515145Y-106794308D01*
X195577220Y-105732233D01*
X196988604Y-105732233D01*
X197676000Y-106419629D01*
X197676000Y-105044837D01*
X196988604Y-105732233D01*
X195577220Y-105732233D01*
X194515145Y-104670158D01*
X193453070Y-105732233D01*
X192041686Y-105732233D01*
X190979611Y-104670158D01*
X189917536Y-105732233D01*
X188506152Y-105732233D01*
X187444077Y-104670158D01*
X186382002Y-105732233D01*
X184970618Y-105732233D01*
X183908543Y-104670158D01*
X182846468Y-105732233D01*
X181435084Y-105732233D01*
X180373009Y-104670158D01*
X179310934Y-105732233D01*
X177899550Y-105732233D01*
X176837475Y-104670158D01*
X176298000Y-105209633D01*
X176298000Y-105249781D01*
X173830503Y-105249781D01*
X173811206Y-105227511D01*
X173800000Y-105176000D01*
X173800000Y-104924000D01*
X173819685Y-104856961D01*
X173872489Y-104811206D01*
X173924000Y-104800000D01*
X175300000Y-104800000D01*
X175300000Y-104552172D01*
X175299999Y-104552155D01*
X175293598Y-104492627D01*
X175293596Y-104492620D01*
X175243354Y-104357913D01*
X175243350Y-104357906D01*
X175157190Y-104242812D01*
X175157187Y-104242809D01*
X175042093Y-104156649D01*
X175042086Y-104156645D01*
X174907379Y-104106403D01*
X174907372Y-104106401D01*
X174847844Y-104100000D01*
X174515996Y-104100000D01*
X174448957Y-104080315D01*
X174403202Y-104027511D01*
X174394137Y-103964465D01*
X177543166Y-103964465D01*
X178605242Y-105026541D01*
X179576357Y-104055425D01*
X179484313Y-104070785D01*
X179479240Y-104071524D01*
X179448471Y-104075359D01*
X179443375Y-104075887D01*
X179402252Y-104079295D01*
X179397134Y-104079613D01*
X179366154Y-104080894D01*
X179361031Y-104081000D01*
X179078969Y-104081000D01*
X179073846Y-104080894D01*
X179042866Y-104079613D01*
X179037748Y-104079295D01*
X178996625Y-104075887D01*
X178991529Y-104075359D01*
X178960760Y-104071524D01*
X178955687Y-104070785D01*
X178677475Y-104024360D01*
X178672438Y-104023412D01*
X178642096Y-104017050D01*
X178637106Y-104015895D01*
X178597103Y-104005766D01*
X178592159Y-104004405D01*
X178572908Y-103998674D01*
X181112909Y-103998674D01*
X182140776Y-105026541D01*
X183118876Y-104048441D01*
X184698210Y-104048441D01*
X185676310Y-105026541D01*
X186626172Y-104076678D01*
X186616625Y-104075887D01*
X186611529Y-104075359D01*
X186580760Y-104071524D01*
X186575687Y-104070785D01*
X186297475Y-104024360D01*
X186292438Y-104023412D01*
X186262096Y-104017050D01*
X186257106Y-104015895D01*
X186217103Y-104005766D01*
X186212159Y-104004405D01*
X186182435Y-103995556D01*
X186177553Y-103993992D01*
X186091544Y-103964465D01*
X188149768Y-103964465D01*
X189211844Y-105026541D01*
X190157385Y-104081000D01*
X191801837Y-104081000D01*
X192747378Y-105026541D01*
X193784431Y-103989487D01*
X193711547Y-103964466D01*
X195220837Y-103964466D01*
X196282912Y-105026541D01*
X197234894Y-104074558D01*
X197228471Y-104075359D01*
X197223375Y-104075887D01*
X197182252Y-104079295D01*
X197177134Y-104079613D01*
X197146154Y-104080894D01*
X197141031Y-104081000D01*
X196858969Y-104081000D01*
X196853846Y-104080894D01*
X196822866Y-104079613D01*
X196817748Y-104079295D01*
X196776625Y-104075887D01*
X196771529Y-104075359D01*
X196740760Y-104071524D01*
X196735687Y-104070785D01*
X196457475Y-104024360D01*
X196452438Y-104023412D01*
X196422096Y-104017050D01*
X196417106Y-104015895D01*
X196377103Y-104005766D01*
X196372159Y-104004405D01*
X196342435Y-103995556D01*
X196337553Y-103993992D01*
X196070773Y-103902406D01*
X196065959Y-103900641D01*
X196037078Y-103889371D01*
X196032348Y-103887412D01*
X195994560Y-103870838D01*
X195989906Y-103868681D01*
X195962044Y-103855060D01*
X195957488Y-103852715D01*
X195730000Y-103729605D01*
X195502512Y-103852715D01*
X195497956Y-103855060D01*
X195470094Y-103868681D01*
X195465440Y-103870838D01*
X195427652Y-103887412D01*
X195422922Y-103889371D01*
X195394041Y-103900641D01*
X195389226Y-103902406D01*
X195227312Y-103957990D01*
X195220837Y-103964466D01*
X193711547Y-103964466D01*
X193530773Y-103902406D01*
X193525959Y-103900641D01*
X193497078Y-103889371D01*
X193492348Y-103887412D01*
X193454560Y-103870838D01*
X193449906Y-103868681D01*
X193422044Y-103855060D01*
X193417488Y-103852715D01*
X193190000Y-103729605D01*
X192962512Y-103852715D01*
X192957956Y-103855060D01*
X192930094Y-103868681D01*
X192925440Y-103870838D01*
X192887652Y-103887412D01*
X192882922Y-103889371D01*
X192854041Y-103900641D01*
X192849227Y-103902406D01*
X192582447Y-103993992D01*
X192577565Y-103995556D01*
X192547841Y-104004405D01*
X192542897Y-104005766D01*
X192502894Y-104015895D01*
X192497904Y-104017050D01*
X192467562Y-104023412D01*
X192462525Y-104024360D01*
X192184313Y-104070785D01*
X192179240Y-104071524D01*
X192148471Y-104075359D01*
X192143375Y-104075887D01*
X192102252Y-104079295D01*
X192097134Y-104079613D01*
X192066154Y-104080894D01*
X192061031Y-104081000D01*
X191801837Y-104081000D01*
X190157385Y-104081000D01*
X190273919Y-103964466D01*
X190236742Y-103927289D01*
X190042447Y-103993992D01*
X190037565Y-103995556D01*
X190007841Y-104004405D01*
X190002897Y-104005766D01*
X189962894Y-104015895D01*
X189957904Y-104017050D01*
X189927562Y-104023412D01*
X189922525Y-104024360D01*
X189644313Y-104070785D01*
X189639240Y-104071524D01*
X189608471Y-104075359D01*
X189603375Y-104075887D01*
X189562252Y-104079295D01*
X189557134Y-104079613D01*
X189526154Y-104080894D01*
X189521031Y-104081000D01*
X189238969Y-104081000D01*
X189233846Y-104080894D01*
X189202866Y-104079613D01*
X189197748Y-104079295D01*
X189156625Y-104075887D01*
X189151529Y-104075359D01*
X189120760Y-104071524D01*
X189115687Y-104070785D01*
X188837475Y-104024360D01*
X188832438Y-104023412D01*
X188802096Y-104017050D01*
X188797106Y-104015895D01*
X188757103Y-104005766D01*
X188752159Y-104004405D01*
X188722435Y-103995556D01*
X188717553Y-103993992D01*
X188450773Y-103902406D01*
X188445959Y-103900641D01*
X188417078Y-103889371D01*
X188412348Y-103887412D01*
X188374560Y-103870838D01*
X188369906Y-103868681D01*
X188342044Y-103855060D01*
X188337487Y-103852715D01*
X188288194Y-103826039D01*
X188149768Y-103964465D01*
X186091544Y-103964465D01*
X185910773Y-103902406D01*
X185905959Y-103900641D01*
X185877078Y-103889371D01*
X185872348Y-103887412D01*
X185834560Y-103870838D01*
X185829906Y-103868681D01*
X185802044Y-103855060D01*
X185797488Y-103852715D01*
X185570000Y-103729605D01*
X185342512Y-103852715D01*
X185337956Y-103855060D01*
X185310094Y-103868681D01*
X185305440Y-103870838D01*
X185267652Y-103887412D01*
X185262922Y-103889371D01*
X185234041Y-103900641D01*
X185229227Y-103902406D01*
X184962447Y-103993992D01*
X184957565Y-103995556D01*
X184927841Y-104004405D01*
X184922897Y-104005766D01*
X184882894Y-104015895D01*
X184877904Y-104017050D01*
X184847562Y-104023412D01*
X184842525Y-104024360D01*
X184698210Y-104048441D01*
X183118876Y-104048441D01*
X183202851Y-103964466D01*
X182989764Y-103751379D01*
X182802512Y-103852715D01*
X182797956Y-103855060D01*
X182770094Y-103868681D01*
X182765440Y-103870838D01*
X182727652Y-103887412D01*
X182722922Y-103889371D01*
X182694041Y-103900641D01*
X182689227Y-103902406D01*
X182422447Y-103993992D01*
X182417565Y-103995556D01*
X182387841Y-104004405D01*
X182382897Y-104005766D01*
X182342894Y-104015895D01*
X182337904Y-104017050D01*
X182307562Y-104023412D01*
X182302525Y-104024360D01*
X182024313Y-104070785D01*
X182019240Y-104071524D01*
X181988471Y-104075359D01*
X181983375Y-104075887D01*
X181942252Y-104079295D01*
X181937134Y-104079613D01*
X181906154Y-104080894D01*
X181901031Y-104081000D01*
X181618969Y-104081000D01*
X181613846Y-104080894D01*
X181582866Y-104079613D01*
X181577748Y-104079295D01*
X181536625Y-104075887D01*
X181531529Y-104075359D01*
X181500760Y-104071524D01*
X181495687Y-104070785D01*
X181217475Y-104024360D01*
X181212438Y-104023412D01*
X181182096Y-104017050D01*
X181177106Y-104015895D01*
X181137103Y-104005766D01*
X181132159Y-104004405D01*
X181112909Y-103998674D01*
X178572908Y-103998674D01*
X178562435Y-103995556D01*
X178557553Y-103993992D01*
X178290773Y-103902406D01*
X178285959Y-103900641D01*
X178257078Y-103889371D01*
X178252348Y-103887412D01*
X178214560Y-103870838D01*
X178209906Y-103868681D01*
X178182044Y-103855060D01*
X178177488Y-103852715D01*
X177929422Y-103718469D01*
X177924963Y-103715935D01*
X177898331Y-103700065D01*
X177893986Y-103697353D01*
X177859441Y-103674784D01*
X177855211Y-103671894D01*
X177843849Y-103663782D01*
X177543166Y-103964465D01*
X174394137Y-103964465D01*
X174393258Y-103958353D01*
X174422283Y-103894797D01*
X174428315Y-103888319D01*
X174652852Y-103663782D01*
X175460206Y-102856427D01*
X175460211Y-102856424D01*
X175470414Y-102846220D01*
X175470416Y-102846220D01*
X175582220Y-102734416D01*
X175634539Y-102643796D01*
X175661277Y-102597485D01*
X175702200Y-102444758D01*
X175702200Y-102286643D01*
X175702200Y-102000797D01*
X175721885Y-101933758D01*
X175774689Y-101888003D01*
X175843847Y-101878059D01*
X175907403Y-101907084D01*
X175913881Y-101913116D01*
X175995139Y-101994374D01*
X175995149Y-101994385D01*
X175999479Y-101998715D01*
X175999480Y-101998716D01*
X176111284Y-102110520D01*
X176198095Y-102160639D01*
X176198097Y-102160641D01*
X176236151Y-102182611D01*
X176248215Y-102189577D01*
X176400943Y-102230501D01*
X176400946Y-102230501D01*
X176566653Y-102230501D01*
X176566669Y-102230500D01*
X177815753Y-102230500D01*
X177882792Y-102250185D01*
X177928547Y-102302989D01*
X177929309Y-102304691D01*
X177937742Y-102323916D01*
X177937745Y-102323922D01*
X178069449Y-102525510D01*
X178232537Y-102702671D01*
X178388908Y-102824379D01*
X178416970Y-102846221D01*
X178422561Y-102850572D01*
X178634336Y-102965179D01*
X178752598Y-103005778D01*
X178862083Y-103043365D01*
X178862085Y-103043365D01*
X178862087Y-103043366D01*
X179099601Y-103083000D01*
X179099602Y-103083000D01*
X179340398Y-103083000D01*
X179340399Y-103083000D01*
X179577913Y-103043366D01*
X179805664Y-102965179D01*
X180017439Y-102850572D01*
X180207463Y-102702671D01*
X180370551Y-102525510D01*
X180386190Y-102501571D01*
X180439336Y-102456214D01*
X180508567Y-102446790D01*
X180571904Y-102476291D01*
X180593808Y-102501570D01*
X180609449Y-102525510D01*
X180772537Y-102702671D01*
X180928908Y-102824379D01*
X180956970Y-102846221D01*
X180962561Y-102850572D01*
X181174336Y-102965179D01*
X181292598Y-103005778D01*
X181402083Y-103043365D01*
X181402085Y-103043365D01*
X181402087Y-103043366D01*
X181639601Y-103083000D01*
X181639602Y-103083000D01*
X181880398Y-103083000D01*
X181880399Y-103083000D01*
X182117913Y-103043366D01*
X182345664Y-102965179D01*
X182557439Y-102850572D01*
X182747463Y-102702671D01*
X182910551Y-102525510D01*
X182926190Y-102501571D01*
X182979336Y-102456214D01*
X183048567Y-102446790D01*
X183111904Y-102476291D01*
X183133808Y-102501570D01*
X183149449Y-102525510D01*
X183312537Y-102702671D01*
X183468908Y-102824379D01*
X183496970Y-102846221D01*
X183502561Y-102850572D01*
X183714336Y-102965179D01*
X183832598Y-103005778D01*
X183942083Y-103043365D01*
X183942085Y-103043365D01*
X183942087Y-103043366D01*
X184179601Y-103083000D01*
X184179602Y-103083000D01*
X184420398Y-103083000D01*
X184420399Y-103083000D01*
X184657913Y-103043366D01*
X184885664Y-102965179D01*
X185097439Y-102850572D01*
X185287463Y-102702671D01*
X185450551Y-102525510D01*
X185466190Y-102501571D01*
X185519336Y-102456214D01*
X185588567Y-102446790D01*
X185651904Y-102476291D01*
X185673808Y-102501570D01*
X185689449Y-102525510D01*
X185852537Y-102702671D01*
X186008908Y-102824379D01*
X186036970Y-102846221D01*
X186042561Y-102850572D01*
X186254336Y-102965179D01*
X186372598Y-103005778D01*
X186482083Y-103043365D01*
X186482085Y-103043365D01*
X186482087Y-103043366D01*
X186719601Y-103083000D01*
X186719602Y-103083000D01*
X186960398Y-103083000D01*
X186960399Y-103083000D01*
X187197913Y-103043366D01*
X187425664Y-102965179D01*
X187637439Y-102850572D01*
X187827463Y-102702671D01*
X187990551Y-102525510D01*
X188006190Y-102501571D01*
X188059336Y-102456214D01*
X188128567Y-102446790D01*
X188191904Y-102476291D01*
X188213808Y-102501570D01*
X188229449Y-102525510D01*
X188392537Y-102702671D01*
X188548908Y-102824379D01*
X188576970Y-102846221D01*
X188582561Y-102850572D01*
X188794336Y-102965179D01*
X188912598Y-103005778D01*
X189022083Y-103043365D01*
X189022085Y-103043365D01*
X189022087Y-103043366D01*
X189259601Y-103083000D01*
X189259602Y-103083000D01*
X189500398Y-103083000D01*
X189500399Y-103083000D01*
X189737913Y-103043366D01*
X189965664Y-102965179D01*
X190177439Y-102850572D01*
X190367463Y-102702671D01*
X190530551Y-102525510D01*
X190546190Y-102501571D01*
X190599336Y-102456214D01*
X190668567Y-102446790D01*
X190731904Y-102476291D01*
X190753808Y-102501570D01*
X190769449Y-102525510D01*
X190932537Y-102702671D01*
X191088908Y-102824379D01*
X191116970Y-102846221D01*
X191122561Y-102850572D01*
X191334336Y-102965179D01*
X191452598Y-103005778D01*
X191562083Y-103043365D01*
X191562085Y-103043365D01*
X191562087Y-103043366D01*
X191799601Y-103083000D01*
X191799602Y-103083000D01*
X192040398Y-103083000D01*
X192040399Y-103083000D01*
X192277913Y-103043366D01*
X192505664Y-102965179D01*
X192717439Y-102850572D01*
X192907463Y-102702671D01*
X193070551Y-102525510D01*
X193086190Y-102501571D01*
X193139336Y-102456214D01*
X193208567Y-102446790D01*
X193271904Y-102476291D01*
X193293808Y-102501570D01*
X193309449Y-102525510D01*
X193472537Y-102702671D01*
X193628908Y-102824379D01*
X193656970Y-102846221D01*
X193662561Y-102850572D01*
X193874336Y-102965179D01*
X193992598Y-103005778D01*
X194102083Y-103043365D01*
X194102085Y-103043365D01*
X194102087Y-103043366D01*
X194339601Y-103083000D01*
X194339602Y-103083000D01*
X194580398Y-103083000D01*
X194580399Y-103083000D01*
X194817913Y-103043366D01*
X195045664Y-102965179D01*
X195257439Y-102850572D01*
X195447463Y-102702671D01*
X195610551Y-102525510D01*
X195626190Y-102501571D01*
X195679336Y-102456214D01*
X195748567Y-102446790D01*
X195811904Y-102476291D01*
X195833808Y-102501570D01*
X195849449Y-102525510D01*
X196012537Y-102702671D01*
X196168908Y-102824379D01*
X196196970Y-102846221D01*
X196202561Y-102850572D01*
X196414336Y-102965179D01*
X196532598Y-103005778D01*
X196642083Y-103043365D01*
X196642085Y-103043365D01*
X196642087Y-103043366D01*
X196879601Y-103083000D01*
X196879602Y-103083000D01*
X197120398Y-103083000D01*
X197120399Y-103083000D01*
X197357913Y-103043366D01*
X197585664Y-102965179D01*
X197797439Y-102850572D01*
X197987463Y-102702671D01*
X198150551Y-102525510D01*
X198282255Y-102323922D01*
X198378983Y-102103405D01*
X198438095Y-101869976D01*
X198453188Y-101687829D01*
X198457980Y-101630005D01*
X198457980Y-101629994D01*
X198444723Y-101470016D01*
X198438095Y-101390024D01*
X198378983Y-101156595D01*
X198282255Y-100936078D01*
X198150551Y-100734490D01*
X197987463Y-100557329D01*
X197828169Y-100433346D01*
X197797441Y-100409429D01*
X197585665Y-100294821D01*
X197585656Y-100294818D01*
X197357916Y-100216634D01*
X197179777Y-100186908D01*
X197120399Y-100177000D01*
X196879601Y-100177000D01*
X196845635Y-100182667D01*
X196642087Y-100216633D01*
X196561780Y-100244203D01*
X196491982Y-100247352D01*
X196433837Y-100214602D01*
X196031415Y-99812180D01*
X195997930Y-99750857D01*
X196002914Y-99681165D01*
X196044786Y-99625232D01*
X196110250Y-99600815D01*
X196119068Y-99600499D01*
X197897872Y-99600499D01*
X197957483Y-99594091D01*
X198092331Y-99543796D01*
X198207546Y-99457546D01*
X198293796Y-99342331D01*
X198344091Y-99207483D01*
X198350500Y-99147873D01*
X198350499Y-97352128D01*
X198344091Y-97292517D01*
X198293796Y-97157669D01*
X198293795Y-97157668D01*
X198293793Y-97157664D01*
X198207547Y-97042455D01*
X198207544Y-97042452D01*
X198092335Y-96956206D01*
X198092328Y-96956202D01*
X197957482Y-96905908D01*
X197957483Y-96905908D01*
X197897883Y-96899501D01*
X197897881Y-96899500D01*
X197897873Y-96899500D01*
X197897864Y-96899500D01*
X196102129Y-96899500D01*
X196102123Y-96899501D01*
X196042516Y-96905908D01*
X195907671Y-96956202D01*
X195907665Y-96956205D01*
X195870194Y-96984256D01*
X195804729Y-97008672D01*
X195736457Y-96993819D01*
X195708204Y-96972669D01*
X195472190Y-96736655D01*
X195472188Y-96736652D01*
X195447217Y-96711681D01*
X195413732Y-96650358D01*
X195418716Y-96580666D01*
X195460588Y-96524733D01*
X195526052Y-96500316D01*
X195534898Y-96500000D01*
X198626000Y-96500000D01*
X198693039Y-96519685D01*
G37*
%TD.AperFunction*%
%TA.AperFunction,Conductor*%
G36*
X166918039Y-113294685D02*
G01*
X166963794Y-113347489D01*
X166975000Y-113399000D01*
X166975000Y-115072702D01*
X166955315Y-115139741D01*
X166938681Y-115160383D01*
X166919481Y-115179582D01*
X166919479Y-115179585D01*
X166916304Y-115185085D01*
X166874469Y-115257546D01*
X166864182Y-115275363D01*
X166840422Y-115316515D01*
X166840422Y-115316516D01*
X166808136Y-115437005D01*
X166771771Y-115496665D01*
X166740772Y-115517290D01*
X166722170Y-115525964D01*
X166722169Y-115525965D01*
X166528600Y-115661503D01*
X166406673Y-115783430D01*
X166345350Y-115816914D01*
X166275658Y-115811930D01*
X166219725Y-115770058D01*
X166202810Y-115739081D01*
X166153797Y-115607671D01*
X166153793Y-115607664D01*
X166067547Y-115492455D01*
X166067544Y-115492452D01*
X165994758Y-115437964D01*
X165952887Y-115382030D01*
X165947903Y-115312339D01*
X165961678Y-115276707D01*
X165985639Y-115235204D01*
X166014577Y-115185085D01*
X166029688Y-115128686D01*
X166066052Y-115069027D01*
X166128899Y-115038497D01*
X166198274Y-115046791D01*
X166223774Y-115061513D01*
X166232911Y-115068352D01*
X166232913Y-115068354D01*
X166367620Y-115118596D01*
X166367627Y-115118598D01*
X166427155Y-115124999D01*
X166427172Y-115125000D01*
X166475000Y-115125000D01*
X166475000Y-113399000D01*
X166494685Y-113331961D01*
X166547489Y-113286206D01*
X166599000Y-113275000D01*
X166851000Y-113275000D01*
X166918039Y-113294685D01*
G37*
%TD.AperFunction*%
%TA.AperFunction,Conductor*%
G36*
X173128039Y-113294685D02*
G01*
X173173794Y-113347489D01*
X173185000Y-113399000D01*
X173185000Y-115062702D01*
X173165315Y-115129741D01*
X173148681Y-115150383D01*
X173119481Y-115179582D01*
X173119479Y-115179585D01*
X173116304Y-115185085D01*
X173074469Y-115257546D01*
X173064182Y-115275363D01*
X173040422Y-115316515D01*
X173040422Y-115316516D01*
X173008136Y-115437005D01*
X172971771Y-115496665D01*
X172940772Y-115517290D01*
X172922170Y-115525964D01*
X172922169Y-115525965D01*
X172728600Y-115661503D01*
X172606673Y-115783430D01*
X172545350Y-115816914D01*
X172475658Y-115811930D01*
X172419725Y-115770058D01*
X172402810Y-115739081D01*
X172353797Y-115607671D01*
X172353793Y-115607664D01*
X172267547Y-115492455D01*
X172267544Y-115492452D01*
X172197710Y-115440174D01*
X172155839Y-115384240D01*
X172150855Y-115314549D01*
X172164632Y-115278911D01*
X172221979Y-115179585D01*
X172221982Y-115179579D01*
X172222405Y-115178845D01*
X172224577Y-115175085D01*
X172237456Y-115127016D01*
X172273819Y-115067357D01*
X172336666Y-115036826D01*
X172406041Y-115045120D01*
X172431542Y-115059843D01*
X172442906Y-115068350D01*
X172442913Y-115068354D01*
X172577620Y-115118596D01*
X172577627Y-115118598D01*
X172637155Y-115124999D01*
X172637172Y-115125000D01*
X172685000Y-115125000D01*
X172685000Y-113399000D01*
X172704685Y-113331961D01*
X172757489Y-113286206D01*
X172809000Y-113275000D01*
X173061000Y-113275000D01*
X173128039Y-113294685D01*
G37*
%TD.AperFunction*%
%TA.AperFunction,Conductor*%
G36*
X174398039Y-107544685D02*
G01*
X174443794Y-107597489D01*
X174455000Y-107649000D01*
X174455000Y-109294000D01*
X174435315Y-109361039D01*
X174382511Y-109406794D01*
X174331000Y-109418000D01*
X174231396Y-109418000D01*
X174295793Y-109482398D01*
X174329277Y-109543722D01*
X174324292Y-109613414D01*
X174295792Y-109657760D01*
X173687681Y-110265872D01*
X173626358Y-110299357D01*
X173556667Y-110294373D01*
X173512319Y-110265872D01*
X173334128Y-110087681D01*
X173304172Y-110032821D01*
X173435000Y-110032821D01*
X173460119Y-110093465D01*
X173506535Y-110139881D01*
X173567179Y-110165000D01*
X173632821Y-110165000D01*
X173693465Y-110139881D01*
X173739881Y-110093465D01*
X173765000Y-110032821D01*
X173765000Y-109967179D01*
X173739881Y-109906535D01*
X173693465Y-109860119D01*
X173632821Y-109835000D01*
X173567179Y-109835000D01*
X173506535Y-109860119D01*
X173460119Y-109906535D01*
X173435000Y-109967179D01*
X173435000Y-110032821D01*
X173304172Y-110032821D01*
X173300643Y-110026358D01*
X173305627Y-109956666D01*
X173334128Y-109912319D01*
X173954999Y-109291447D01*
X173955000Y-109291446D01*
X173955000Y-107649000D01*
X173974685Y-107581961D01*
X174027489Y-107536206D01*
X174079000Y-107525000D01*
X174331000Y-107525000D01*
X174398039Y-107544685D01*
G37*
%TD.AperFunction*%
%TA.AperFunction,Conductor*%
G36*
X170810000Y-99580636D02*
G01*
X170840491Y-99604033D01*
X170881694Y-99660461D01*
X170888224Y-99716291D01*
X170872135Y-99859095D01*
X170872135Y-99859103D01*
X170892330Y-100038349D01*
X170892331Y-100038354D01*
X170951911Y-100208623D01*
X171006073Y-100294821D01*
X171047884Y-100361362D01*
X171175438Y-100488916D01*
X171257675Y-100540589D01*
X171284316Y-100557329D01*
X171328178Y-100584889D01*
X171409875Y-100613476D01*
X171498445Y-100644468D01*
X171498450Y-100644469D01*
X171677696Y-100664665D01*
X171677700Y-100664665D01*
X171677704Y-100664665D01*
X171856949Y-100644469D01*
X171856952Y-100644468D01*
X171856955Y-100644468D01*
X172027222Y-100584889D01*
X172179962Y-100488916D01*
X172179967Y-100488910D01*
X172182797Y-100486655D01*
X172184975Y-100485765D01*
X172185858Y-100485211D01*
X172185955Y-100485365D01*
X172247483Y-100460245D01*
X172260112Y-100459600D01*
X173488803Y-100459600D01*
X173555842Y-100479285D01*
X173576484Y-100495919D01*
X173668384Y-100587819D01*
X173701869Y-100649142D01*
X173696885Y-100718834D01*
X173655013Y-100774767D01*
X173589549Y-100799184D01*
X173580703Y-100799500D01*
X173252130Y-100799500D01*
X173252123Y-100799501D01*
X173192516Y-100805908D01*
X173057671Y-100856202D01*
X173057664Y-100856206D01*
X172942455Y-100942452D01*
X172942452Y-100942455D01*
X172856207Y-101057663D01*
X172856202Y-101057671D01*
X172832891Y-101120170D01*
X172791019Y-101176103D01*
X172773419Y-101186126D01*
X172773554Y-101186359D01*
X172766515Y-101190423D01*
X172659627Y-101252135D01*
X172629581Y-101269482D01*
X170995284Y-102903781D01*
X170933961Y-102937266D01*
X170907603Y-102940100D01*
X170030362Y-102940100D01*
X169963323Y-102920415D01*
X169917568Y-102867611D01*
X169907624Y-102798453D01*
X169936649Y-102734897D01*
X169995427Y-102697123D01*
X170001845Y-102695424D01*
X170007479Y-102694092D01*
X170007481Y-102694091D01*
X170007483Y-102694091D01*
X170142331Y-102643796D01*
X170257546Y-102557546D01*
X170343796Y-102442331D01*
X170394091Y-102307483D01*
X170400500Y-102247873D01*
X170400499Y-101252128D01*
X170394091Y-101192517D01*
X170391794Y-101186359D01*
X170343797Y-101057671D01*
X170343793Y-101057664D01*
X170257547Y-100942455D01*
X170257544Y-100942452D01*
X170142335Y-100856206D01*
X170142328Y-100856202D01*
X170007482Y-100805908D01*
X170007483Y-100805908D01*
X169947883Y-100799501D01*
X169947881Y-100799500D01*
X169947873Y-100799500D01*
X169947865Y-100799500D01*
X169874500Y-100799500D01*
X169807461Y-100779815D01*
X169761706Y-100727011D01*
X169750500Y-100675500D01*
X169750500Y-99556725D01*
X169770185Y-99489686D01*
X169822989Y-99443931D01*
X169892147Y-99433987D01*
X169926905Y-99444343D01*
X170096507Y-99523429D01*
X170096516Y-99523433D01*
X170310000Y-99580634D01*
X170310000Y-98683012D01*
X170367007Y-98715925D01*
X170494174Y-98750000D01*
X170625826Y-98750000D01*
X170752993Y-98715925D01*
X170810000Y-98683012D01*
X170810000Y-99580636D01*
G37*
%TD.AperFunction*%
%TA.AperFunction,Conductor*%
G36*
X157421193Y-96519685D02*
G01*
X157466948Y-96572489D01*
X157476892Y-96641647D01*
X157471860Y-96663003D01*
X157460495Y-96697299D01*
X157460493Y-96697309D01*
X157450000Y-96800013D01*
X157450000Y-96950000D01*
X159849999Y-96950000D01*
X159849999Y-96800028D01*
X159849998Y-96800013D01*
X159839506Y-96697304D01*
X159828140Y-96663005D01*
X159825738Y-96593177D01*
X159861469Y-96533134D01*
X159923989Y-96501941D01*
X159945846Y-96500000D01*
X160654154Y-96500000D01*
X160721193Y-96519685D01*
X160766948Y-96572489D01*
X160776892Y-96641647D01*
X160771860Y-96663003D01*
X160760495Y-96697299D01*
X160760493Y-96697309D01*
X160750000Y-96800013D01*
X160750000Y-96950000D01*
X163149999Y-96950000D01*
X163149999Y-96800028D01*
X163149998Y-96800013D01*
X163139506Y-96697304D01*
X163128140Y-96663005D01*
X163125738Y-96593177D01*
X163161469Y-96533134D01*
X163223989Y-96501941D01*
X163245846Y-96500000D01*
X163604154Y-96500000D01*
X163671193Y-96519685D01*
X163716948Y-96572489D01*
X163726892Y-96641647D01*
X163721860Y-96663003D01*
X163710495Y-96697299D01*
X163710493Y-96697309D01*
X163700000Y-96800013D01*
X163700000Y-96950000D01*
X166099999Y-96950000D01*
X166099999Y-96800028D01*
X166099998Y-96800013D01*
X166089506Y-96697304D01*
X166078140Y-96663005D01*
X166075738Y-96593177D01*
X166111469Y-96533134D01*
X166173989Y-96501941D01*
X166195846Y-96500000D01*
X168621402Y-96500000D01*
X168688441Y-96519685D01*
X168734196Y-96572489D01*
X168744140Y-96641647D01*
X168715115Y-96705203D01*
X168709096Y-96711667D01*
X168620751Y-96800013D01*
X168557582Y-96863182D01*
X168496259Y-96896666D01*
X168469901Y-96899500D01*
X167122129Y-96899500D01*
X167122123Y-96899501D01*
X167062516Y-96905908D01*
X166927671Y-96956202D01*
X166927664Y-96956206D01*
X166812455Y-97042452D01*
X166812452Y-97042455D01*
X166726206Y-97157664D01*
X166726202Y-97157671D01*
X166675908Y-97292517D01*
X166669501Y-97352116D01*
X166669501Y-97352123D01*
X166669500Y-97352135D01*
X166669500Y-99147870D01*
X166669501Y-99147876D01*
X166675909Y-99207485D01*
X166698206Y-99267268D01*
X166703190Y-99336960D01*
X166669704Y-99398283D01*
X166608380Y-99431767D01*
X166568145Y-99433821D01*
X166551401Y-99431935D01*
X166551396Y-99431935D01*
X166372150Y-99452130D01*
X166372137Y-99452133D01*
X166265454Y-99489464D01*
X166195675Y-99493026D01*
X166135048Y-99458298D01*
X166102820Y-99396304D01*
X166100499Y-99372423D01*
X166100499Y-98799998D01*
X166100498Y-98799981D01*
X166089999Y-98697203D01*
X166089998Y-98697200D01*
X166064885Y-98621415D01*
X166034814Y-98530666D01*
X165942712Y-98381344D01*
X165848695Y-98287327D01*
X165815210Y-98226004D01*
X165820194Y-98156312D01*
X165848695Y-98111964D01*
X165942317Y-98018342D01*
X166034356Y-97869124D01*
X166034358Y-97869119D01*
X166089505Y-97702697D01*
X166089506Y-97702690D01*
X166099999Y-97599986D01*
X166100000Y-97599973D01*
X166100000Y-97450000D01*
X163700001Y-97450000D01*
X163700001Y-97599986D01*
X163710494Y-97702697D01*
X163765641Y-97869119D01*
X163765643Y-97869124D01*
X163857684Y-98018345D01*
X163951304Y-98111965D01*
X163984789Y-98173288D01*
X163979805Y-98242980D01*
X163951305Y-98287327D01*
X163857285Y-98381347D01*
X163779074Y-98508147D01*
X163727126Y-98554872D01*
X163658164Y-98566093D01*
X163594082Y-98538250D01*
X163555226Y-98480181D01*
X163553767Y-98475164D01*
X163546966Y-98449781D01*
X163516777Y-98337115D01*
X163483686Y-98279800D01*
X163437720Y-98200184D01*
X163325916Y-98088380D01*
X163325915Y-98088379D01*
X163321585Y-98084049D01*
X163321574Y-98084039D01*
X163143990Y-97906455D01*
X163110505Y-97845132D01*
X163113965Y-97779769D01*
X163139505Y-97702694D01*
X163139506Y-97702690D01*
X163149999Y-97599986D01*
X163150000Y-97599973D01*
X163150000Y-97450000D01*
X160750001Y-97450000D01*
X160750001Y-97539600D01*
X160730316Y-97606639D01*
X160677512Y-97652394D01*
X160626001Y-97663600D01*
X159974000Y-97663600D01*
X159906961Y-97643915D01*
X159861206Y-97591111D01*
X159850000Y-97539600D01*
X159850000Y-97450000D01*
X157450001Y-97450000D01*
X157450001Y-97599986D01*
X157460494Y-97702697D01*
X157483918Y-97773385D01*
X157486320Y-97843213D01*
X157453893Y-97900070D01*
X156981286Y-98372678D01*
X156869481Y-98484482D01*
X156869479Y-98484484D01*
X156855818Y-98508147D01*
X156836369Y-98541835D01*
X156790423Y-98621415D01*
X156749499Y-98774143D01*
X156749499Y-98774145D01*
X156749499Y-98942246D01*
X156749500Y-98942259D01*
X156749500Y-100343964D01*
X156729815Y-100411003D01*
X156699812Y-100443230D01*
X156667457Y-100467450D01*
X156667451Y-100467457D01*
X156581206Y-100582664D01*
X156581202Y-100582671D01*
X156540182Y-100692654D01*
X156498311Y-100748588D01*
X156432847Y-100773005D01*
X156364574Y-100758154D01*
X156315168Y-100708748D01*
X156300000Y-100649321D01*
X156300000Y-96624000D01*
X156319685Y-96556961D01*
X156372489Y-96511206D01*
X156424000Y-96500000D01*
X157354154Y-96500000D01*
X157421193Y-96519685D01*
G37*
%TD.AperFunction*%
%TD*%
M02*
